<?xml version="1.0" standalone="yes"?>
<svg xmlns="http://www.w3.org/2000/svg" width="500" height="135">
<path style="fill:#011222; stroke:none;" d="M0 0L0 135L500 135L500 0L0 0z"/>
<path style="fill:#ff5d03; stroke:none;" d="M470 11L467 13L467 14L470 11z"/>
<path style="fill:#1aa7e5; stroke:none;" d="M65.6667 13.3333L66.3333 13.6667L65.6667 13.3333z"/>
<path style="fill:#f1f4f8; stroke:none;" d="M67 13L68 14L67 13z"/>
<path style="fill:#011222; stroke:none;" d="M469 13L435 52L434 52L415 32C418.654 39.8348 427.941 49.0136 435 54L459.424 26L469 13z"/>
<path style="fill:#fea430; stroke:none;" d="M470 13L435 54L434 54L429 49L436.999 56.7932L445.627 48L463.801 24L470 13z"/>
<path style="fill:#ff5d03; stroke:none;" d="M471 13L472 14L471 13z"/>
<path style="fill:#1aa7e5; stroke:none;" d="M63 14C46.0962 30.9038 24.7578 47.4692 11 67L49 30L63 14z"/>
<path style="fill:#f1f4f8; stroke:none;" d="M68 14C65.3856 21.97 51.2068 30.7927 51.2068 38C51.2068 41.2614 55.7179 45.4624 59 44.6543C69.6445 42.0337 75.6314 30.4247 70 22L73 23L68 14z"/>
<path style="fill:#1aa7e5; stroke:none;" d="M69.3333 14.6667L69.6667 15.3333L69.3333 14.6667z"/>
<path style="fill:#f1f4f8; stroke:none;" d="M466.667 14.3333L467.333 14.6667L466.667 14.3333z"/>
<path style="fill:#1aa7e5; stroke:none;" d="M67 122L61.2068 107L74 93L106 60L107 60L115 68L115 69L86 97L69 116L72 115L69 120C84.4542 110.479 95.1528 96.7359 108.09 84.1698C112.06 80.3134 121.659 74.4341 121.183 68C120.787 62.6545 113.478 57.4784 110 54C98.4946 42.4939 87.3039 28.3714 74 19L74 21L69 17L73 23L70 22C72.6654 28.0206 74.06 32.5255 68.0671 37.429C64.4289 40.4059 53.503 49.054 51.9213 38.9105C50.6803 30.9518 66.6856 24.6897 67 15C51.4046 22.2727 37.1595 42.8405 25 55C21.8986 58.1013 13.3349 64.0299 13.9213 69C14.5201 74.0748 22.6028 79.6028 26 83C37.8837 94.8837 51.7545 114.89 67 122z"/>
<path style="fill:#011222; stroke:none;" d="M68 15L69 16L68 15z"/>
<path style="fill:#f1f4f8; stroke:none;" d="M70 15L74 20L70 15z"/>
<path style="fill:#fea430; stroke:none;" d="M466 15L467 16L466 15z"/>
<path style="fill:#ff5d03; stroke:none;" d="M470 15L469 17L470 15M472 15L471 18L472 15z"/>
<path style="fill:#011222; stroke:none;" d="M69 16L70 17L69 16z"/>
<path style="fill:#fea430; stroke:none;" d="M465 16L466 17L465 16z"/>
<path style="fill:#f1f4f8; stroke:none;" d="M467 16L468 17L467 16z"/>
<path style="fill:#011222; stroke:none;" d="M470 16L464 28L465 28L470 16z"/>
<path style="fill:#fea430; stroke:none;" d="M471 16L472 17L471 16z"/>
<path style="fill:#011222; stroke:none;" d="M70 17L71 18L70 17z"/>
<path style="fill:#fea430; stroke:none;" d="M464 17L465 18L464 17z"/>
<path style="fill:#011222; stroke:none;" d="M71 18L72 19L71 18z"/>
<path style="fill:#fea430; stroke:none;" d="M463 18L464 19L463 18z"/>
<path style="fill:#ff5d03; stroke:none;" d="M468 18L469 19L468 18z"/>
<path style="fill:#fea430; stroke:none;" d="M470 18L469 20L470 18z"/>
<path style="fill:#011222; stroke:none;" d="M72 19L73 20L72 19z"/>
<path style="fill:#f1f4f8; stroke:none;" d="M462 19L463 20L462 19z"/>
<path style="fill:#ff5d03; stroke:none;" d="M467 19L444.873 48L436.13 55.7932L415 34L437 70L439 70L441 65L442 65L440 70L444 64L442 65L442 64L444 60L445 60L444 63L445 63L447 59L445 60L445 59L460.873 32L467 19M470 19L471 20L470 19z"/>
<path style="fill:#011222; stroke:none;" d="M73 20L74 21L73 20z"/>
<path style="fill:#fea430; stroke:none;" d="M460 23L463 20L460 23z"/>
<path style="fill:#ff5d03; stroke:none;" d="M469 20L468 23L469 20z"/>
<path style="fill:#1aa7e5; stroke:none;" d="M69 21L70 22L69 21z"/>
<path style="fill:#011222; stroke:none;" d="M74 21L107 55L118.515 68.5756L107 82L74 116L109 82L120.079 69L110 56L74 21z"/>
<path style="fill:#f1f4f8; stroke:none;" d="M460 21L461 22L460 21z"/>
<path style="fill:#fea430; stroke:none;" d="M459 23L460 24L459 23z"/>
<path style="fill:#ff5d03; stroke:none;" d="M467.333 23.6667L467.667 24.3333L467.333 23.6667z"/>
<path style="fill:#fea430; stroke:none;" d="M458 24L459 25L458 24M457 25L458 26L457 25z"/>
<path style="fill:#ff5d03; stroke:none;" d="M459 25L460 26L459 25z"/>
<path style="fill:#fea430; stroke:none;" d="M464 25L465 26L464 25z"/>
<path style="fill:#ff5d03; stroke:none;" d="M466 25L465 27L467 27L466 25z"/>
<path style="fill:#fea430; stroke:none;" d="M456 26L457 27L456 26M455 27L456 28L455 27z"/>
<path style="fill:#f1f4f8; stroke:none;" d="M463 27L464 28L463 27z"/>
<path style="fill:#fea430; stroke:none;" d="M465 27L464 29L465 27z"/>
<path style="fill:#1aa7e5; stroke:none;" d="M147 28L148 29L147 28M149 28L149 29L152 29L149 28M159.667 28.3333L160.333 28.6667L159.667 28.3333M162 28L164 30L162 28M172 28L172 29L178 29L172 28M202 28L202 29L208 29L202 28M217 28L217 29L241 29L217 28M248 28L248 29L255 29L255 30C252.788 30.0262 249.585 29.6268 248.028 31.6034C245.957 34.2311 247 39.8711 247 43C247 51.7191 242.409 74.6194 254 75L254 42L255 42L259 51L258 51L257 48L256 48L256 52L262 54L264 59L261 57L267 62C266.713 65.1211 266.86 66.3667 270 67L272 72L271 72L270 69L269 69L274 75L272 74L275 77C275 73.898 278.367 75 281 75L281 30L274 30L275 63L274 63L273 31L272 31L272 53L271 53L267 50L264 44L267 46C264.479 41.2637 261.608 34.0492 256 33L256 29L248 28M276 28L276 29L281 29L276 28M286 28L286 29L317 29L286 28M329 28L328 30L329 28M331 28L332 29L331 28M340 28L340 29L344 29L340 28M367 28L366 30L367 28M369 28L369 29L372 29L369 28M377 28L377 29L382 29L377 28M401 28L401 29L410 29L401 28z"/>
<path style="fill:#f1f4f8; stroke:none;" d="M454 28L455 29L454 28z"/>
<path style="fill:#1aa7e5; stroke:none;" d="M465 28L465 29L486 29L465 28M144.667 29.3333L145.333 29.6667L144.667 29.3333M326 29L327 30L326 29M346 29L347 30L346 29M364 29L365 32L361 31L361 32L363 33C358.459 33.9395 355.987 35.7982 354 40L355 40L358 36C352.438 46.6147 351.663 55.7389 356 67L353 65L355 69L357 67L360 74L370 78L370 77L364 75L364 74C372.713 75.6898 378.722 75.3723 387 72L386 74C392.157 69.9732 396.33 64.4391 397 57L398 57L398 74L399 74L399 31L398 31L398 47L397 47L397 45L396 45L394 65L393 65C395.951 55.6898 395.487 47.0557 392 38L393 38L395 44L396 44C392.413 25.9745 375.496 34.2027 364 29M383 29L384 30L383 29z"/>
<path style="fill:#fea430; stroke:none;" d="M452 32L455 29L452 32z"/>
<path style="fill:#1aa7e5; stroke:none;" d="M142 30L143 31L142 30M137 38L134 38L129 51L130 51L132 43L133 43L133 63L132 63L130 55L129 55L132 65L134 63L135 67L133 66L137 72L139 70L140 74L141 74L140 72L141 72C148.909 76.4311 157.702 76.5071 166 73L165 66L165 65L152 67L152 68L163 67L163 68L144 66L144 65L151 67L151 66L143 60L141 62C139.185 53.2009 138.1 45.2045 146 39L143 44L144 44C147.728 39.2821 152.15 38.1246 158 38L158 37L146 39L146 38L165 38L166 32C158.951 29.0255 151.233 29.5825 144 31.6458C140.452 32.658 135.478 33.5651 137 38M171 30L171 75L197 75L196 68L178 69L178 30L171 30M201 30L201 75L208 75L208 30L201 30M216 30L216 75L242 75L242 69L224 69L223 68L223 55L240 55L240 48L224 49L223 48L224 36L241 36L241 30L216 30M284 30C284.284 38.6473 291.113 37 298 37L297 64L298.028 73.3966L305 75L305 37L319 39L320 36L321 36L320 49L319 49L319 47L318 47L324 55L322 52L325 56L336 61L334 63L334 64L337 64L337 65L320 63C318.836 77.7716 330.001 76.327 342 74L342 75L336 77L336 78C345.828 74.7685 354.658 67.0993 351 56L350 56L350 67L349 67L348 54L352 48L351 48L350 54L349 54L337 45L337 46L345 51L333 46L333 43L332 43L333 45L332 45L331 40L347 42L348 32L349 32L347 40L348 40L349 31C340.335 31.101 328.024 27.043 321 34L325 32L321 36L320 31L319 31L319 37L318 37L318 30L284 30M385 30L386 31L385 30M400 30L400 75L429 75C428.99 62.6542 421.219 65 411 65L411.167 41.0008L410.771 31.5139L400 30z"/>
<path style="fill:#ff5d03; stroke:none;" d="M414 30L415 31L414 30z"/>
<path style="fill:#f1f4f8; stroke:none;" d="M452 30L453 31L452 30z"/>
<path style="fill:#1aa7e5; stroke:none;" d="M458 75L487 75L487 65L470 65L470 57L485 57L485 47L470 47L470 40L486 40L486 30C479.664 30 466.438 27.4968 461.279 31.6034C457.631 34.5071 458.007 39.8356 458 44L458 75z"/>
<path style="fill:#f1f4f8; stroke:none;" d="M77 31C73.2299 34.7701 61.2326 43.163 61.9213 49C62.4356 53.3585 74.3514 65.8451 78.9776 64.6551C82.7125 63.6943 82.7911 58.3406 86.2392 57.5463C88.0919 57.1195 90.1941 58.6393 89.0787 60.6049C79.0628 78.2565 63.0561 54.9058 55 47.0046C50.6657 42.7537 42.6477 38.8309 40.3457 48.0008C38.9526 53.5502 51.4991 62.4991 55 66C59.3487 70.3487 69.5295 84.7932 76 84.7932C82.6251 84.7932 93.5662 69.5234 97.9954 65C99.9757 62.9775 103.461 60.2377 102.654 57C101.145 50.9467 91.3241 44.3241 87 40L86 40C85.1846 40.8421 74.1848 54.9839 74.2068 47.9105C74.2264 41.6111 88.2753 41.9928 80.0972 33.321C79.2031 32.3728 78.0443 31.745 77 31z"/>
<path style="fill:#1aa7e5; stroke:none;" d="M169 31L170 32L169 31M199 31L198 74L200 74C200 61.7811 203.71 42.2256 199 31M214 31L214 74L215 74C215 61.7811 218.71 42.2256 214 31M242 31L242 36L243 36L244 31L242 31M245 31L245 74L246 74C246 61.7811 249.71 42.2256 245 31z"/>
<path style="fill:#ff5d03; stroke:none;" d="M415 31L416 32L415 31z"/>
<path style="fill:#1aa7e5; stroke:none;" d="M487 31L487 39L488 39L487 31M167 32L166 37L167 37L167 32M180 32L181 33L180 32M210 32L211 33L210 32z"/>
<path style="fill:#fea430; stroke:none;" d="M413 32L421 49L419 48L420 51L422 49L424 55L422 54L424 59L426 57L433 72L431 71L432 74L434 72L437 74C437.799 63.6277 425.688 50.611 420.388 42C418.271 38.5607 416.273 34.3689 413 32M416 32L417 33L416 32M451 32L452 33L451 32z"/>
<path style="fill:#011222; stroke:none;" d="M140 33L137 37L140 33M257 33L263 44L264 44L257 33M387 33L392 38L387 33z"/>
<path style="fill:#ff5d03; stroke:none;" d="M417 33L418 34L417 33z"/>
<path style="fill:#fea430; stroke:none;" d="M450 33L451 34L450 33z"/>
<path style="fill:#011222; stroke:none;" d="M359 34L358 36L359 34z"/>
<path style="fill:#fea430; stroke:none;" d="M411 34L412 35L411 34z"/>
<path style="fill:#ff5d03; stroke:none;" d="M418 34L419 35L418 34z"/>
<path style="fill:#fea430; stroke:none;" d="M449 34L450 35L449 34z"/>
<path style="fill:#1aa7e5; stroke:none;" d="M69 35L68 37L69 35z"/>
<path style="fill:#ff5d03; stroke:none;" d="M419 35L426 43L419 35z"/>
<path style="fill:#fea430; stroke:none;" d="M448 35L449 36L448 35M447 36L445 40L446 40L447 36z"/>
<path style="fill:#1aa7e5; stroke:none;" d="M283 37L283 74L284 74C284 63.3512 287.111 46.7978 283 37z"/>
<path style="fill:#fea430; stroke:none;" d="M413 37L418 47L419 47L413 37z"/>
<path style="fill:#f1f4f8; stroke:none;" d="M415 37L416 38L415 37M447 37L448 38L447 37z"/>
<path style="fill:#1aa7e5; stroke:none;" d="M160.667 38.3333L161.333 38.6667L160.667 38.3333M225 38L225 47L240 47L240 46L226 46L226 39L240 39L225 38M285 38L285 39L295 39L295 74L296 74L296 38L285 38M306 38L306 75L307 75L307 39L317 39L306 38z"/>
<path style="fill:#ff5d03; stroke:none;" d="M414 38L415 39L414 38z"/>
<path style="fill:#011222; stroke:none;" d="M415 38L420 49L421 49L415 38z"/>
<path style="fill:#fea430; stroke:none;" d="M419 38L420 39L419 38z"/>
<path style="fill:#f1f4f8; stroke:none;" d="M445 38L446 39L445 38z"/>
<path style="fill:#011222; stroke:none;" d="M134 39L133 43L134 43L134 39z"/>
<path style="fill:#1aa7e5; stroke:none;" d="M163 39L164 40L163 39z"/>
<path style="fill:#011222; stroke:none;" d="M371.043 39.7461C360.421 43.8957 363.436 70.4387 376.981 65.2539C387.673 61.1616 384.349 34.5483 371.043 39.7461z"/>
<path style="fill:#f1f4f8; stroke:none;" d="M416 39L417 40L416 39z"/>
<path style="fill:#fea430; stroke:none;" d="M420 39L421 40L420 39z"/>
<path style="fill:#f1f4f8; stroke:none;" d="M423 39L424 40L423 39z"/>
<path style="fill:#1aa7e5; stroke:none;" d="M317 40L317 46L318 46L317 40M372 40L372 41L380 44L372 40M413 40L413 62L414 62L413 40z"/>
<path style="fill:#fea430; stroke:none;" d="M421 40L422 41L421 40z"/>
<path style="fill:#f1f4f8; stroke:none;" d="M424 40L425 41L424 40z"/>
<path style="fill:#fea430; stroke:none;" d="M444 40L445 41L444 40z"/>
<path style="fill:#1aa7e5; stroke:none;" d="M486 40L487 41L486 40z"/>
<path style="fill:#011222; stroke:none;" d="M52 41L53 42L52 41z"/>
<path style="fill:#1aa7e5; stroke:none;" d="M332 41L332 42L335 42L332 41M337 41L337 42L345 43L337 41M353 41L351 47L352 47L353 41M369 41C365.472 48.5594 365.498 55.1077 368 63L369 63C367.027 54.3707 366.474 48.9293 371 41L369 41z"/>
<path style="fill:#f1f4f8; stroke:none;" d="M417 41L418 42L417 41z"/>
<path style="fill:#fea430; stroke:none;" d="M422 41L423 42L422 41M443 41L444 42L443 41z"/>
<path style="fill:#011222; stroke:none;" d="M455 41L445 60L446 60C449.08 54.9682 456.008 47.0583 455 41z"/>
<path style="fill:#1aa7e5; stroke:none;" d="M456 41L457 42L456 41M471 44L472 44L486 42C482.562 40.0193 471.997 39.346 471 44z"/>
<path style="fill:#fea430; stroke:none;" d="M423 42L424 43L423 42M442 42L443 43L442 42M454 42L455 43L454 42z"/>
<path style="fill:#ff5d03; stroke:none;" d="M456 42L455 45L456 45L456 42z"/>
<path style="fill:#fea430; stroke:none;" d="M424 43L425 44L424 43z"/>
<path style="fill:#ff5d03; stroke:none;" d="M426 43L427 44L426 43z"/>
<path style="fill:#fea430; stroke:none;" d="M441 43L442 44L441 43z"/>
<path style="fill:#1aa7e5; stroke:none;" d="M456 43L456 74L457 74L456 43M335 44L336 45L335 44z"/>
<path style="fill:#fea430; stroke:none;" d="M425 44L426 45L425 44z"/>
<path style="fill:#ff5d03; stroke:none;" d="M427 44L428 45L427 44z"/>
<path style="fill:#fea430; stroke:none;" d="M440 44L441 45L440 44z"/>
<path style="fill:#f1f4f8; stroke:none;" d="M453 44L454 45L453 44z"/>
<path style="fill:#1aa7e5; stroke:none;" d="M380 45L381 49L382 49L380 45z"/>
<path style="fill:#f1f4f8; stroke:none;" d="M426 45L427 46L426 45z"/>
<path style="fill:#fea430; stroke:none;" d="M428 45L429 46L428 45M439 45L437 49L438 49L439 45z"/>
<path style="fill:#ff5d03; stroke:none;" d="M454.333 45.6667L454.667 46.3333L454.333 45.6667z"/>
<path style="fill:#1aa7e5; stroke:none;" d="M471 45L472 46L471 45M473 45L474 46L473 45M484 45L485 46L484 45M142 46L143 47L142 46z"/>
<path style="fill:#fea430; stroke:none;" d="M429 46L430 47L429 46z"/>
<path style="fill:#f1f4f8; stroke:none;" d="M439 46L440 47L439 46z"/>
<path style="fill:#1aa7e5; stroke:none;" d="M267 47L268 48L267 47z"/>
<path style="fill:#f1f4f8; stroke:none;" d="M418 47L419 48L418 47z"/>
<path style="fill:#fea430; stroke:none;" d="M430 47L431 48L430 47z"/>
<path style="fill:#f1f4f8; stroke:none;" d="M437 47L438 48L437 47z"/>
<path style="fill:#ff5d03; stroke:none;" d="M453.333 47.6667L453.667 48.3333L453.333 47.6667z"/>
<path style="fill:#011222; stroke:none;" d="M59 48L60 49L59 48z"/>
<path style="fill:#fea430; stroke:none;" d="M60 48L61 49L60 48z"/>
<path style="fill:#1aa7e5; stroke:none;" d="M141 48L141 54L142 54L141 48z"/>
<path style="fill:#fea430; stroke:none;" d="M431 48L432 49L431 48z"/>
<path style="fill:#1aa7e5; stroke:none;" d="M242 49L242 54L243 54L242 49z"/>
<path style="fill:#011222; stroke:none;" d="M320 49L322 52L320 49z"/>
<path style="fill:#ff5d03; stroke:none;" d="M419 49L420 50L419 49z"/>
<path style="fill:#011222; stroke:none;" d="M421 49L423 55L424 55L421 49z"/>
<path style="fill:#fea430; stroke:none;" d="M432 49L433 50L432 49M436 49L437 50L436 49M450 49L451 50L450 49z"/>
<path style="fill:#ff5d03; stroke:none;" d="M452 49L453 50L452 49z"/>
<path style="fill:#011222; stroke:none;" d="M39 50L40 51L39 50M61 50L62 51L61 50M268 50L271 57L272 57L268 50z"/>
<path style="fill:#fea430; stroke:none;" d="M433 50L434 51L433 50M435 50L436 51L435 50z"/>
<path style="fill:#ff5d03; stroke:none;" d="M451.333 50.6667L451.667 51.3333L451.333 50.6667z"/>
<path style="fill:#011222; stroke:none;" d="M40 51L41 52L40 51M259 51L261 54L259 51M345 51L348 54L345 51z"/>
<path style="fill:#ff5d03; stroke:none;" d="M420 51L421 52L420 51z"/>
<path style="fill:#f1f4f8; stroke:none;" d="M421 51L422 52L421 51z"/>
<path style="fill:#fea430; stroke:none;" d="M434 51L435 52L434 51z"/>
<path style="fill:#f1f4f8; stroke:none;" d="M436 51L437 52L436 51M35 53.1759C30.729 54.6478 22.6478 62.729 21.1759 67C19.7948 71.0079 24.9921 76.2052 29 74.8241C33.271 73.3522 41.3522 65.271 42.8241 61C44.2052 56.9921 39.0079 51.7948 35 53.1759z"/>
<path style="fill:#011222; stroke:none;" d="M41 52L42 53L41 52z"/>
<path style="fill:#fea430; stroke:none;" d="M421 52L422 53L421 52z"/>
<path style="fill:#ff5d03; stroke:none;" d="M450.333 52.6667L450.667 53.3333L450.333 52.6667z"/>
<path style="fill:#011222; stroke:none;" d="M42 53L43 54L42 53z"/>
<path style="fill:#f1f4f8; stroke:none;" d="M421.667 53.3333L422.333 53.6667L421.667 53.3333z"/>
<path style="fill:#011222; stroke:none;" d="M43 54L44 55L43 54z"/>
<path style="fill:#fea430; stroke:none;" d="M447 54L448 55L447 54z"/>
<path style="fill:#ff5d03; stroke:none;" d="M449 54L450 55L449 54z"/>
<path style="fill:#011222; stroke:none;" d="M44 55L45 56L44 55M66 55L67 56L66 55z"/>
<path style="fill:#1aa7e5; stroke:none;" d="M141 55L141 59L142 59L141 55z"/>
<path style="fill:#011222; stroke:none;" d="M326 55L326 56L337 64L338 64C337.01 57.7712 331.561 56.3179 326 55z"/>
<path style="fill:#f1f4f8; stroke:none;" d="M422 55L423 56L422 55z"/>
<path style="fill:#011222; stroke:none;" d="M424.333 55.6667L424.667 56.3333L424.333 55.6667z"/>
<path style="fill:#ff5d03; stroke:none;" d="M448 55L449 56L448 55z"/>
<path style="fill:#1aa7e5; stroke:none;" d="M225 56L225 67L226 67L226 57L240 57L225 56M381 56C378.925 61.8725 376.258 63.8716 370 63L370 64C375.709 65.2372 382.464 63.1035 381 56z"/>
<path style="fill:#fea430; stroke:none;" d="M448 56L449 57L448 56z"/>
<path style="fill:#f1f4f8; stroke:none;" d="M423 57L424 58L423 57z"/>
<path style="fill:#011222; stroke:none;" d="M425.333 57.6667L425.667 58.3333L425.333 57.6667z"/>
<path style="fill:#ff5d03; stroke:none;" d="M447 57L448 58L447 57z"/>
<path style="fill:#f1f4f8; stroke:none;" d="M447 58L448 59L447 58z"/>
<path style="fill:#1aa7e5; stroke:none;" d="M471 58L471 64L487 64L487 63L472 63L472 59L485 59L471 58z"/>
<path style="fill:#011222; stroke:none;" d="M264 59L266 62L264 59z"/>
<path style="fill:#f1f4f8; stroke:none;" d="M424.667 59.3333L425.333 59.6667L424.667 59.3333M106 60L72 94L60.2068 108L68 123L69 123L72 115L69 116L115 69L115 68L106 60z"/>
<path style="fill:#fea430; stroke:none;" d="M425 60L426 61L425 60z"/>
<path style="fill:#011222; stroke:none;" d="M444 60L442 65L443 65L444 60z"/>
<path style="fill:#fea430; stroke:none;" d="M426 61L428 64L426 61M443 61L444 62L443 61z"/>
<path style="fill:#f1f4f8; stroke:none;" d="M74 89C71.2869 84.9429 65.258 74.9524 59.0571 78.662C56.4051 80.2486 54.6641 86.6276 51.1096 86.0795C49.2982 85.8002 48.7755 83.9062 49.7515 82.5255C51.6911 79.7817 55.6268 79.2493 57.2485 75.9807C59.3876 71.6692 51.9208 64.3231 48 63.3457C43.4814 62.2192 31.2068 74.5919 31.2068 79C31.2068 81.8101 34.2279 84.1855 36.0046 86C40.0952 90.1776 50.6636 104.826 57 104.079C63.4605 103.317 69.9277 93.4475 74 89z"/>
<path style="fill:#011222; stroke:none;" d="M51 62L52 63L51 62z"/>
<path style="fill:#fea430; stroke:none;" d="M88 62L89 63L88 62z"/>
<path style="fill:#011222; stroke:none;" d="M142 62L144 65L142 62z"/>
<path style="fill:#1aa7e5; stroke:none;" d="M324.667 62.3333L325.333 62.6667L324.667 62.3333z"/>
<path style="fill:#011222; stroke:none;" d="M52 63L53 64L52 63z"/>
<path style="fill:#1aa7e5; stroke:none;" d="M327.667 63.3333L328.333 63.6667L327.667 63.3333M413 63L413 64L427 64L413 63z"/>
<path style="fill:#f1f4f8; stroke:none;" d="M444 63L445 64L444 63z"/>
<path style="fill:#011222; stroke:none;" d="M53 64L54 65L53 64z"/>
<path style="fill:#1aa7e5; stroke:none;" d="M180 64L181 65L180 64z"/>
<path style="fill:#011222; stroke:none;" d="M267 64L269 67L267 64z"/>
<path style="fill:#1aa7e5; stroke:none;" d="M318 64L316 72L317 72L318 64M487 64L488 65L487 64z"/>
<path style="fill:#011222; stroke:none;" d="M54 65L55 66L54 65M392 65L387 72L392 65z"/>
<path style="fill:#fea430; stroke:none;" d="M428 65L429 66L428 65z"/>
<path style="fill:#011222; stroke:none;" d="M441 65L437 74L438 74L441 65M55 66L56 67L55 66z"/>
<path style="fill:#1aa7e5; stroke:none;" d="M179 66L179 67L196 67L179 66M227 66L227 67L241 67L227 66z"/>
<path style="fill:#fea430; stroke:none;" d="M440 66L441 67L440 66z"/>
<path style="fill:#1aa7e5; stroke:none;" d="M488 66L488 75L489 75L488 66z"/>
<path style="fill:#011222; stroke:none;" d="M135 67L138 70L135 67M348 67L342 73L342 74C345.158 72.5112 348.08 70.7169 348 67M18 68L19 69L18 68z"/>
<path style="fill:#1aa7e5; stroke:none;" d="M166 68L167 69L166 68M430 68L431 69L430 68z"/>
<path style="fill:#011222; stroke:none;" d="M431 68L432 72L433 72L431 68z"/>
<path style="fill:#1aa7e5; stroke:none;" d="M11 69L12 70L11 69M102 69L104 75L105 71L103 73L102 73L102 69M243 69L244 70L243 69z"/>
<path style="fill:#fea430; stroke:none;" d="M430 69L431 70L430 69z"/>
<path style="fill:#011222; stroke:none;" d="M20 70L21 71L20 70z"/>
<path style="fill:#fea430; stroke:none;" d="M100 70L98 76L98 77L101 78L102 78L100 70z"/>
<path style="fill:#1aa7e5; stroke:none;" d="M357 70L359 72L357 70M430 70L431 71L430 70z"/>
<path style="fill:#f1f4f8; stroke:none;" d="M431 70L432 71L431 70z"/>
<path style="fill:#fea430; stroke:none;" d="M440 70L441 71L440 70z"/>
<path style="fill:#1aa7e5; stroke:none;" d="M12 71L13 72L12 71z"/>
<path style="fill:#011222; stroke:none;" d="M21 71L22 72L21 71z"/>
<path style="fill:#1aa7e5; stroke:none;" d="M167.333 71.6667L167.667 72.3333L167.333 71.6667M243 71L244 72L243 71z"/>
<path style="fill:#f1f4f8; stroke:none;" d="M437 71L438 72L437 71z"/>
<path style="fill:#fea430; stroke:none;" d="M439 71L440 72L439 71z"/>
<path style="fill:#011222; stroke:none;" d="M22 72L23 73L22 72M102 72L103 73L102 72z"/>
<path style="fill:#1aa7e5; stroke:none;" d="M106 72L105 74L107 74L106 72M210 72L211 73L210 72z"/>
<path style="fill:#011222; stroke:none;" d="M361 72L364 74L364 73L361 72z"/>
<path style="fill:#1aa7e5; stroke:none;" d="M430.333 72.6667L430.667 73.3333L430.333 72.6667z"/>
<path style="fill:#011222; stroke:none;" d="M433.333 72.6667L433.667 73.3333L433.333 72.6667z"/>
<path style="fill:#f1f4f8; stroke:none;" d="M438.667 72.3333L439.333 72.6667L438.667 72.3333z"/>
<path style="fill:#1aa7e5; stroke:none;" d="M14 73C25.5648 89.4175 45.5825 109.435 62 121C50.4352 104.582 30.4175 84.5648 14 73z"/>
<path style="fill:#011222; stroke:none;" d="M23 73L24 74L23 73z"/>
<path style="fill:#1aa7e5; stroke:none;" d="M169 73L170 74L169 73M243 73L244 74L243 73z"/>
<path style="fill:#fea430; stroke:none;" d="M438 73L439 74L438 73z"/>
<path style="fill:#011222; stroke:none;" d="M24 74L25 75L24 74M104 74L105 75L104 74z"/>
<path style="fill:#1aa7e5; stroke:none;" d="M142 74L142 75L147 77L147 76L142 74M384 74L380 76L380 77L385 75L384 74z"/>
<path style="fill:#ff5d03; stroke:none;" d="M433 74L434 75L433 74M437 74L438 75L437 74z"/>
<path style="fill:#011222; stroke:none;" d="M25 75L26 76L25 75z"/>
<path style="fill:#1aa7e5; stroke:none;" d="M164 75L158 77L158 78L165 76L164 75M320 75L320 76L328 78L328 77L320 75M487 75L488 76L487 75z"/>
<path style="fill:#ff5d03; stroke:none;" d="M100 76L101 77L100 76z"/>
<path style="fill:#1aa7e5; stroke:none;" d="M148 76L150 78L148 76M172 76L173 77L172 76M174 76L175 77L174 76M193 76L194 77L193 76M195 76L196 77L195 76M202 76L203 77L202 76M204.667 76.3333L205.333 76.6667L204.667 76.3333M207 76L208 77L207 76M217 76L218 77L217 76M219 76L220 77L219 76M238 76L239 77L238 76M248 76L249 77L248 76M250.667 76.3333L251.333 76.6667L250.667 76.3333M253 76L254 77L253 76M276 76L277 77L276 76M278 76L279 77L278 76M280 76L281 77L280 76M298 76L299 77L298 76M300.667 76.3333L301.333 76.6667L300.667 76.3333M303 76L304 77L303 76M403 76L404 77L403 76M424.667 76.3333L425.333 76.6667L424.667 76.3333M427 76L428 77L427 76z"/>
<path style="fill:#fea430; stroke:none;" d="M435 76L436 77L435 76z"/>
<path style="fill:#1aa7e5; stroke:none;" d="M459 76L460 77L459 76M461 76L462 77L461 76M483 76L484 77L483 76M485 76L486 77L485 76z"/>
<path style="fill:#011222; stroke:none;" d="M66 77L67 78L66 77z"/>
<path style="fill:#1aa7e5; stroke:none;" d="M94 77L95 84L92 83L94 79L90 83C93.7817 84.9346 96.1897 84.7389 96 80L98 81L98 80L94 77M152 77L152 78L156 78L152 77M330 77L330 78L333 78L330 77M372 77L372 78L375 78L372 77M377.667 77.3333L378.333 77.6667L377.667 77.3333M99 79L99 81L101 79L99 79z"/>
<path style="fill:#011222; stroke:none;" d="M30 80L31 81L30 80M94 80L95 81L94 80M98 80L99 81L98 80M31 81L32 82L31 81z"/>
<path style="fill:#f1f4f8; stroke:none;" d="M92 81L95 84L92 81z"/>
<path style="fill:#011222; stroke:none;" d="M32 82L33 83L32 82M54 82L53 86L54 86L54 82M33 83L34 84L33 83z"/>
<path style="fill:#1aa7e5; stroke:none;" d="M88 83L87 87L91 87L90 90L91 90L91 85L88 86L88 83z"/>
<path style="fill:#011222; stroke:none;" d="M91 83L92 84L91 83M34 84L35 85L34 84M35 85L36 86L35 85z"/>
<path style="fill:#1aa7e5; stroke:none;" d="M54 85L55 86L54 85z"/>
<path style="fill:#011222; stroke:none;" d="M36 86L37 87L36 86M37 87L38 88L37 87z"/>
<path style="fill:#1aa7e5; stroke:none;" d="M84 87L83 88L88 92L84 87z"/>
<path style="fill:#ff5d03; stroke:none;" d="M136.667 87.3333L137.333 87.6667L136.667 87.3333M146 87L147 88L146 87M174 87L175 88L174 87z"/>
<path style="fill:#f1f4f8; stroke:none;" d="M175 87L176 88L175 87M200 87L200 88L209 88L200 87z"/>
<path style="fill:#ff5d03; stroke:none;" d="M233.667 87.3333L234.333 87.6667L233.667 87.3333z"/>
<path style="fill:#f1f4f8; stroke:none;" d="M235 87L235 88L238 88L235 87z"/>
<path style="fill:#ff5d03; stroke:none;" d="M237 89L240 89L239 87L237 89M272 87L273 88L272 87M312 100L312 101L308 101L310 106L309 106L307 102L306 102L311 108L310 106L311 106L319 106L319 107L312 108L312 109C317.491 110.012 320.567 106.647 323 102L320 106L319 106L320 99L321 99L321 101L322 101L321 97L319 99L319 95L315 96L315 95L322 93C315.139 78.7655 300.595 96.0906 312 100M347.001 88.0278C333.923 94.5872 342.77 114.805 354.999 108.817C368.426 102.243 359.931 81.5424 347.001 88.0278M384 87L385 88L384 87z"/>
<path style="fill:#f1f4f8; stroke:none;" d="M385 87L386 88L385 87z"/>
<path style="fill:#ff5d03; stroke:none;" d="M414 87L414 88L417 88L414 87M424 87L425 88L424 87z"/>
<path style="fill:#f1f4f8; stroke:none;" d="M425 87L426 88L425 87z"/>
<path style="fill:#ff5d03; stroke:none;" d="M453 100L453 101L448 100L449 103L447 102L447 103C449.92 107.046 452.825 109.953 458 109L458 108L451 107L451 106L460 106L459 108L462 105L460 106L460 105L461 99L462 99L462 104L463 104L460 95L454 94L456 95L460 94C458.249 88.4617 454.211 89.2583 450 92C453.945 87.5462 459.471 87.6672 461 94C468.43 80.2721 433.997 93.4864 453 100M484 87L485 88L484 87z"/>
<path style="fill:#f1f4f8; stroke:none;" d="M485 87L486 88L485 87z"/>
<path style="fill:#011222; stroke:none;" d="M38 88L39 89L38 88z"/>
<path style="fill:#f1f4f8; stroke:none;" d="M240 88L241 89L240 88z"/>
<path style="fill:#011222; stroke:none;" d="M315 103L312 101L317 102L317 101C314.808 99.4867 311.115 97.7548 310.346 94.9614C308.513 88.3033 317.465 90.5028 320 93C320.154 86.2878 308.056 87.2872 308.546 94.0363C308.808 97.6408 312.896 100.377 315 103M348.001 88.7461C335.311 93.454 342.633 112.038 354.995 107.258C367.222 102.53 359.643 84.4271 348.001 88.7461M450 92C454.441 89.8749 457.469 89.2256 460 94L456 95L454 93C455.607 95.3956 460.796 96.4385 460.793 92C460.79 85.7289 451.847 88.8394 450 92M39 89L40 90L39 89z"/>
<path style="fill:#ff5d03; stroke:none;" d="M136 89L131 108L135 109L135 108L132 108L132 107L136 102L137 102L137 106L138 106L137 98L138 98L143 107L141 108L141 109L144 108L143 104L144 104L146 106L145 99L146 99L150 109L150 108L148 108L148 107C154.06 105.701 148.078 93.6567 148 89L142 100L141 100L140 94L141 94L142 96L144 90L143 90L142 94L141 94L141 91L140 91L140 94L139 94L136 89M173 90C173 95.3894 170.823 104.95 177 107L177 108L174 108L174 109L178 108L177 90L178 90L178 106L179 106L178 89L173 90M196 91L196 92L203 93L203 107L206 107L206 93L213 92C209.18 88.5271 200.623 89.1172 196 91M241 89L242 90L241 89M272 89L271 92L269 90L263 105L264 105L264 103L265 103L264 107L268 107L268 108L265 108L265 109L269 108C269.508 103.391 273.308 101.862 276 106L275 106L270 104L270 105L280 109L280 108L277 108L277 107L280 107L278 99L279 99L281 105L282 105L275 93L274 93L272 89M349.004 89.6682C337.397 92.9895 342.754 109.571 353.985 106.562C365.019 103.607 359.652 86.6214 349.004 89.6682M383 90C383 99.116 380.759 106.96 392 107L392 108L384 108L384 109L393 108L392 103L393 103L393 106L394 106L389 101L388 89L383 90M414 90L414 104L413 104L412 90L411 90L413 106L415 104L415 108C427.042 113.686 429.999 99.9745 430 91L428 91L427 105L426 105L428 89L423 90C423 95.2868 424.212 101.126 419 104L419 103C423.224 100.261 422 94.5696 422 90L421 90L421 101L419 101L418 89L414 90M484 90C484 94.5027 481.77 105.879 487 107L487 108L484 108L484 109L488 108L487 90L488 90L488 106L489 106L488 89L484 90z"/>
<path style="fill:#011222; stroke:none;" d="M40 90L41 91L40 90z"/>
<path style="fill:#1aa7e5; stroke:none;" d="M82 90L83 93L79 92L83 97L81 94L86 94L82 90z"/>
<path style="fill:#f1f4f8; stroke:none;" d="M139 90L140 91L139 90z"/>
<path style="fill:#ff5d03; stroke:none;" d="M149 90L149 94L150 94L149 90M171 90L171 106L172 106L171 90z"/>
<path style="fill:#011222; stroke:none;" d="M198 90L198 93L199 93L198 90M210 90L210 93L211 93L210 90z"/>
<path style="fill:#ff5d03; stroke:none;" d="M230 90L230 106L231 106L230 90M232 90C232 95.3894 229.823 104.95 236 107L236 101L237 101C237.556 105.855 238.511 109.239 244 108L242 103L244 104L244 103L242 101L242 100L245 92L244 92L244 97C241.286 91.0396 238.34 90.0224 232 90M242 90L243 91L242 90z"/>
<path style="fill:#f1f4f8; stroke:none;" d="M275 90L276 91L275 90z"/>
<path style="fill:#ff5d03; stroke:none;" d="M381 90L381 106L382 106L381 90z"/>
<path style="fill:#011222; stroke:none;" d="M387 90L387 103L392 103L392 102L388 102L387 90M417 90L418 103L419 103L417 90M427 90L426 105L427 105L427 90z"/>
<path style="fill:#f1f4f8; stroke:none;" d="M428 90L429 91L428 90z"/>
<path style="fill:#ff5d03; stroke:none;" d="M481 90L481 106L482 106L481 90z"/>
<path style="fill:#011222; stroke:none;" d="M41 91L42 92L41 91z"/>
<path style="fill:#ff5d03; stroke:none;" d="M133 91L130 106L131 106L133 91M243 91L244 92L243 91z"/>
<path style="fill:#011222; stroke:none;" d="M42 92L43 93L42 92M269 92L265 103L266 103L269 92M449 92L456 103L453 101L458 102L458 101L449 92M43 93L44 94L43 93z"/>
<path style="fill:#1aa7e5; stroke:none;" d="M69 93L68 95L69 93z"/>
<path style="fill:#f1f4f8; stroke:none;" d="M141 93L142 94L141 93z"/>
<path style="fill:#011222; stroke:none;" d="M236 93L236 97L239 97L239 93L236 93z"/>
<path style="fill:#f1f4f8; stroke:none;" d="M268 93L269 94L268 93z"/>
<path style="fill:#011222; stroke:none;" d="M275 93L277 99L278 99L275 93M313 95L316 93L313 95M319 93L315 95L315 96L320 94L319 93M348.318 94.0324C342.705 97.6487 349.277 105.598 354.566 101.971C359.845 98.3519 353.284 90.8329 348.318 94.0324M44 94L45 95L44 94z"/>
<path style="fill:#1aa7e5; stroke:none;" d="M77 94L80 100L77 94z"/>
<path style="fill:#ff5d03; stroke:none;" d="M150 94L151 101L152 101L150 94M200 94L200 106L201 106L200 94M208 94L208 106L209 106L208 94M237.333 94.6667L237.667 95.3333L237.333 94.6667z"/>
<path style="fill:#f1f4f8; stroke:none;" d="M319 94L320 95L319 94z"/>
<path style="fill:#ff5d03; stroke:none;" d="M349.314 95.0471C344.894 97.824 349.36 104.1 353.397 100.968C356.838 98.2974 353.252 92.5729 349.314 95.0471z"/>
<path style="fill:#f1f4f8; stroke:none;" d="M460 94L461 95L460 94z"/>
<path style="fill:#011222; stroke:none;" d="M45 95L46 96L45 95M354 101C353.211 90.8785 343.878 100.211 354 101z"/>
<path style="fill:#f1f4f8; stroke:none;" d="M353 95L354 96L353 95z"/>
<path style="fill:#011222; stroke:none;" d="M46 96L47 97L46 96M272 96L271 100L274 100L272 96M317 96L318 97L317 96z"/>
<path style="fill:#f1f4f8; stroke:none;" d="M319 96L320 97L319 96z"/>
<path style="fill:#011222; stroke:none;" d="M458 96L461 99L458 96z"/>
<path style="fill:#1aa7e5; stroke:none;" d="M74 97L78 102L74 97z"/>
<path style="fill:#f1f4f8; stroke:none;" d="M150 97L151 98L150 97z"/>
<path style="fill:#011222; stroke:none;" d="M242 97L239 99L241 103L242 103L242 97M318 97L320 99L320 97L318 97z"/>
<path style="fill:#f1f4f8; stroke:none;" d="M460 97L461 98L460 97z"/>
<path style="fill:#1aa7e5; stroke:none;" d="M81 98L82 99L81 98z"/>
<path style="fill:#f1f4f8; stroke:none;" d="M310 98L311 99L310 98M340 98L341 99L340 98z"/>
<path style="fill:#011222; stroke:none;" d="M320 99L319 106L320 106L320 99M461 99L460 106L461 106L461 99z"/>
<path style="fill:#1aa7e5; stroke:none;" d="M71 100L77 104L77 103L71 100z"/>
<path style="fill:#f1f4f8; stroke:none;" d="M348 100L349 101L348 100z"/>
<path style="fill:#ff5d03; stroke:none;" d="M152 101L152 105L153 105L152 101z"/>
<path style="fill:#f1f4f8; stroke:none;" d="M322 101L323 102L322 101z"/>
<path style="fill:#1aa7e5; stroke:none;" d="M69 102C68.5009 105.314 69.0594 106.38 72 108L72 107L69 102z"/>
<path style="fill:#011222; stroke:none;" d="M144.333 102.667L144.667 103.333L144.333 102.667z"/>
<path style="fill:#f1f4f8; stroke:none;" d="M314 102L315 103L314 102M455 102L456 103L455 102z"/>
<path style="fill:#011222; stroke:none;" d="M449 103L451 106L449 103M54 104L55 105L54 104z"/>
<path style="fill:#ff5d03; stroke:none;" d="M244.333 104.667L244.667 105.333L244.333 104.667z"/>
<path style="fill:#011222; stroke:none;" d="M414 104L417 107L414 104z"/>
<path style="fill:#f1f4f8; stroke:none;" d="M450 104L451 105L450 104M462 104L463 105L462 104M138 105L139 106L138 105z"/>
<path style="fill:#ff5d03; stroke:none;" d="M153 105L154 106L153 105z"/>
<path style="fill:#011222; stroke:none;" d="M238 105L243 108L243 107L238 105z"/>
<path style="fill:#f1f4f8; stroke:none;" d="M262 105L263 106L262 105M270 105L271 106L270 105M282 105L283 106L282 105z"/>
<path style="fill:#011222; stroke:none;" d="M425 105L417 107L417 108C419.982 107.988 424.399 108.489 425 105z"/>
<path style="fill:#1aa7e5; stroke:none;" d="M73 106L74 107L73 106z"/>
<path style="fill:#f1f4f8; stroke:none;" d="M173 106L174 107L173 106z"/>
<path style="fill:#011222; stroke:none;" d="M276 106L277 107L276 106M310 106L310 107L319 107L319 106L310 106z"/>
<path style="fill:#f1f4f8; stroke:none;" d="M383 106L384 107L383 106M414 106L415 107L414 106z"/>
<path style="fill:#011222; stroke:none;" d="M451 106L451 107L460 107L460 106L451 106z"/>
<path style="fill:#ff5d03; stroke:none;" d="M236 107L237 108L236 107z"/>
<path style="fill:#f1f4f8; stroke:none;" d="M150 108L151 109L150 108z"/>
<path style="fill:#ff5d03; stroke:none;" d="M203.667 108.333L204.333 108.667L203.667 108.333z"/>
<path style="fill:#f1f4f8; stroke:none;" d="M205 108L206 109L205 108z"/>
<path style="fill:#ff5d03; stroke:none;" d="M233 108L233 109L236 109L233 108z"/>
<path style="fill:#f1f4f8; stroke:none;" d="M311 108L312 109L311 108M458 108L459 109L458 108M72 114L73 115L72 114z"/>
<path style="fill:#011222; stroke:none;" d="M73 116L68 122L73 116z"/>
<path style="fill:#f1f4f8; stroke:none;" d="M70 122L71 122L75 118L70 122z"/>
<path style="fill:#1aa7e5; stroke:none;" d="M72 119L73 120L72 119M71 120L72 121L71 120M69.3333 121.667L69.6667 122.333L69.3333 121.667M63 122L64 123L63 122M66 123L67 124L66 123z"/>
<path style="fill:#f1f4f8; stroke:none;" d="M67 123L68 124L67 123z"/>
</svg>
