<?xml version="1.0" standalone="yes"?>
<svg xmlns="http://www.w3.org/2000/svg" width="300" height="81">
<path style="fill:#fcfdfe; stroke:none;" d="M0 0L0 81L300 81L300 0L0 0z"/>
<path style="fill:#a8b8c9; stroke:none;" d="M39 9L45 17L45 18L40 25L46 19L47 19L51 23L48 18L71 40C63.0305 28.6864 50.5102 16.7418 39 9z"/>
<path style="fill:#fecca4; stroke:none;" d="M281 9L279 12L281 9z"/>
<path style="fill:#1d86d7; stroke:none;" d="M40 72L35 65L35 64L40 58C30.1489 64.2999 25.7835 53.4828 18 48L18 47L28 37L29 37C34.5372 45.0357 31.6097 44.2523 29 52L33 52C34.7152 48.5415 36.1313 47.4365 40 48L23 30L23 29L28 24L29 24L40 35L36 28L40 23C25.5199 31.6404 38.7401 14.4887 40 10L16.0008 32L9.6358 41L16.0008 50L40 72z"/>
<path style="fill:#ff8d3c; stroke:none;" d="M279 12C276.15 15.8449 266.203 33.2691 260.975 31.7932C256.515 30.5339 252.843 23.7299 249 21L263 42C267.672 34.366 279.018 20.9558 279 12z"/>
<path style="fill:#fcfdfe; stroke:none;" d="M39 13C37.0505 15.747 32.1866 19.3904 32.206 22.9367C32.2507 31.0983 43.5607 19.4382 45 18L39 13z"/>
<path style="fill:#fecca4; stroke:none;" d="M279 13L280 14L279 13z"/>
<path style="fill:#a8b8c9; stroke:none;" d="M38 14L39 15L38 14z"/>
<path style="fill:#fecca4; stroke:none;" d="M277 14L278 15L277 14M276 15L277 16L276 15M278 15L279 16L278 15z"/>
<path style="fill:#a8b8c9; stroke:none;" d="M36 16L37 17L36 16z"/>
<path style="fill:#fecca4; stroke:none;" d="M275 16L276 17L275 16z"/>
<path style="fill:#a8b8c9; stroke:none;" d="M35 17L36 18L35 17z"/>
<path style="fill:#fecca4; stroke:none;" d="M274 17L275 18L274 17z"/>
<path style="fill:#a8b8c9; stroke:none;" d="M34 18L35 19L34 18z"/>
<path style="fill:#1d86d7; stroke:none;" d="M48 18L51 22L51 23L47 30L48 30C51.4158 23.1505 61.2184 28.5299 60.3688 35C59.6319 40.6123 50.6969 45.8013 48 51L65 36L69 40L47 64C52.6654 61.061 69.7932 47.8752 69.7932 41C69.7932 34.2358 53.2168 21.6748 48 18z"/>
<path style="fill:#a8b8c9; stroke:none;" d="M88 18L88 19L91 19L88 18z"/>
<path style="fill:#1d86d7; stroke:none;" d="M99 44L98 41C88.0004 43.352 77.4755 33.3048 86.2785 24.2284C90.0871 20.3016 96.1291 22.9424 99 19C85.6673 16.5615 70.0228 33.3882 85.1049 42.7215C89.4965 45.4391 94.2013 44.6033 99 44z"/>
<path style="fill:#a8b8c9; stroke:none;" d="M96.6667 18.3333L97.3333 18.6667L96.6667 18.3333M103 18L103 19L106 19C106 30.9058 102.29 41.9984 117 42L117 44L103 44L103 45L118 45L118 41L107 41L107 18L103 18M121 18L121 19L124 19C124 25.3663 126.795 40.2431 121 44L121 45L125 45L125 18L121 18M130 18L130 19L144 19L130 18M149 18L149 19L154 20L149 18M165 18L165 19L168 19L168 44L163 42L169 45C169 38.4893 172.229 20.3993 165 18M171 18L171 19L190 19L190 21C174.482 21.1839 188.16 38.0612 179 44L179 45L183 45L183 22L191 21L191 19L171 18M197.667 18.3333L198.333 18.6667L197.667 18.3333z"/>
<path style="fill:#1d86d7; stroke:none;" d="M193 39L192 44C198.147 44.7762 214.154 44.0586 207.82 33.213C206.347 30.6904 198.969 28.4553 199.631 25.2168C200.226 22.3105 205.183 23.6838 207 24L208 19C205.715 18.7128 203.31 18.1157 200.998 18.2785C177.195 19.9555 215.197 43.043 193 39z"/>
<path style="fill:#a8b8c9; stroke:none;" d="M204 18L204 19L207 19L204 18M220.667 18.3333L221.333 18.6667L220.667 18.3333z"/>
<path style="fill:#1d86d7; stroke:none;" d="M222.001 18.5478C206.427 21.9422 210.865 47.9698 226.999 44.4522C242.286 41.1194 238 15.0608 222.001 18.5478z"/>
<path style="fill:#a8b8c9; stroke:none;" d="M227.667 18.3333L228.333 18.6667L227.667 18.3333M240 18L240 45L257 45L257 44L241 44L241 19L246 19C246 30.6326 242.883 39.9984 257 40L257 39L247 39L247 18L240 18z"/>
<path style="fill:#fecca4; stroke:none;" d="M273 18L272 21L273 18z"/>
<path style="fill:#a8b8c9; stroke:none;" d="M276 18L276 19L291 19L291 23C285.528 23.0042 281.496 22.6359 281 29L291 29L291 28L282 28L282 24C284.01 23.9984 296.83 22.1454 289.677 18.6026C286.101 16.8313 279.919 18 276 18M33 19L34 20L33 19z"/>
<path style="fill:#fcfdfe; stroke:none;" d="M46 19C43.5662 21.4356 38.2063 25.1986 38.2068 29C38.2075 34.4225 47.6493 41.6445 50 34L55 35L55 37C42.6259 41.768 37.7911 33.7911 29 25L28 25L24 29L24 30C28.5641 34.5641 39.2866 49.7932 46 49.7932C49.4941 49.7932 52.785 45.2258 54.9992 43C57.0084 40.9803 60.7932 38.1677 60.7932 35C60.7932 28.3235 50.4414 22.6148 48 31L44 27C48.9977 25.5449 50.0287 22.4857 46 19z"/>
<path style="fill:#a8b8c9; stroke:none;" d="M86 19L87 20L86 19z"/>
<path style="fill:#1d86d7; stroke:none;" d="M103 19L103 44L117 44L117 42C102.582 41.9889 106 30.3598 106 19L103 19M121 19L121 44L124 44L124 19L121 19M130 19L130 44L145 44L145 42C132.864 41.9987 129.164 32.0489 143 32L143 30C130.409 29.9555 132.314 21.009 144 21L144 19L130 19M149 19L149 44L152 44L152 24L153 24C155.496 30.8174 160.652 41.8387 168 44L168 19L165 19L166 39C161.282 32.8173 157.287 20.34 149 19M171 19L171 21L179 21L179 44L182 44C182 35.5105 178.468 21.3755 190 21L190 19L171 19z"/>
<path style="fill:#a8b8c9; stroke:none;" d="M195 19L196 20L195 19M218 19L219 20L218 19M230 19L231 20L230 19z"/>
<path style="fill:#1d86d7; stroke:none;" d="M241 19L241 44L257 44L257 40C243.198 39.9893 246 30.0844 246 19L241 19M276 19L276 44L292 44L292 40L281 40C281.496 33.4923 285.179 33.0206 291 33L291 29L281 29C281.936 23.1283 285.749 23.0186 291 23L291 19L276 19z"/>
<path style="fill:#a8b8c9; stroke:none;" d="M32 20L33 21L32 20M84 20L85 21L84 20M144 20L145 21L144 20M194 20L195 21L194 20z"/>
<path style="fill:#fecca4; stroke:none;" d="M248 20L249 21L248 20z"/>
<path style="fill:#a8b8c9; stroke:none;" d="M275 20L275 45L292 45L292 44L276 44L275 20M31 21L32 22L31 21M83 21L84 22L83 21M89 21L89 22L92 22L89 21M94 21L94 22L97 22L94 21M98 21L99 22L98 21M134 21L134 22L144 22L134 21M154 21L155 22L154 21M171 21L171 22L179 22L171 21M193 21L194 22L193 21M233 21L234 22L233 21z"/>
<path style="fill:#fecca4; stroke:none;" d="M250 21L251 22L250 21M271 21L272 22L271 21z"/>
<path style="fill:#a8b8c9; stroke:none;" d="M30.3333 22.6667L30.6667 23.3333L30.3333 22.6667M82 22L83 23L82 22M87 22L88 23L87 22M133 22L133 29L134 29L133 22M155 22L156 23L155 22M192.333 22.6667L192.667 23.3333L192.333 22.6667M207.333 22.6667L207.667 23.3333L207.333 22.6667z"/>
<path style="fill:#fecca4; stroke:none;" d="M249 22L250 23L249 22M270 22L260 33C264.892 33.0762 270.249 26.9192 270 22M274 22L275 23L274 22z"/>
<path style="fill:#a8b8c9; stroke:none;" d="M86 23L87 24L86 23M199 23L199 24L205 24L199 23M214 23L215 24L214 23M222 23L223 24L222 23z"/>
<path style="fill:#fcfdfe; stroke:none;" d="M223.094 23.8511C216.427 25.942 218.015 41.5849 225.895 39.1489C232.628 37.0677 230.797 21.4353 223.094 23.8511z"/>
<path style="fill:#a8b8c9; stroke:none;" d="M226 23L227 24L226 23M234 23L235 24L234 23M28 24L29 25L28 24M31 24L32 25L31 24M51.6667 24.3333L52.3333 24.6667L51.6667 24.3333M85 24L86 25L85 24M152 24L153 25L152 24M156 24L157 25L156 24M198 24L199 25L198 24M213 24L214 25L213 24M220 24L221 25L220 24M235 24L236 25L235 24M27 25L28 26L27 25M29 25L30 26L29 25M32 25L33 26L32 25M48 25L49 26L48 25M50 25L51 26L50 25M53 25L54 26L53 25M80.3333 25.6667L80.6667 26.3333L80.3333 25.6667M84 25L85 26L84 25z"/>
<path style="fill:#fcfdfe; stroke:none;" d="M152.333 25.6667L152.667 26.3333L152.333 25.6667z"/>
<path style="fill:#a8b8c9; stroke:none;" d="M228 25L229 26L228 25z"/>
<path style="fill:#fecca4; stroke:none;" d="M251 25L252 26L251 25M272 25L273 26L272 25z"/>
<path style="fill:#a8b8c9; stroke:none;" d="M26 26L27 27L26 26M30 26L31 27L30 26M33 26L34 27L33 26M47 26L48 27L47 26M49 26L50 27L49 26M54 26L55 27L54 26M153 26L154 27L153 26M157 26L158 27L157 26M198 26L199 27L198 26M212.333 26.6667L212.667 27.3333L212.333 26.6667M219 26L220 27L219 26M229 26L230 27L229 26M25 27L26 28L25 27M31 27L32 28L31 27M44 27L48 31L47 27L44 27M48 27L49 28L48 27M55 27L56 28L55 27M152 27L152 44L153 44L152 27M154 27L155 28L154 27M158 27L159 28L158 27M199 27L200 28L199 27M236.333 27.6667L236.667 28.3333L236.333 27.6667z"/>
<path style="fill:#fecca4; stroke:none;" d="M252 27L253 28L252 27M271 27L272 28L271 27z"/>
<path style="fill:#a8b8c9; stroke:none;" d="M24 28L25 29L24 28M32 28L33 29L32 28M36.3333 28.6667L36.6667 29.3333L36.3333 28.6667M56 28L57 29L56 28M79 28L79 36L80 36L79 28M83 28L83 31L84 31L83 28M192.333 28.6667L192.667 29.3333L192.333 28.6667M201 28L202 29L201 28M218 28L218 35L219 35L218 28z"/>
<path style="fill:#fecca4; stroke:none;" d="M253.333 28.6667L253.667 29.3333L253.333 28.6667M256 28L257 29L256 28z"/>
<path style="fill:#a8b8c9; stroke:none;" d="M23 29L24 30L23 29M33 29L34 30L33 29M57 29L58 30L57 29M134 29L134 30L143 30L143 32L134 32L134 33L144 33L144 29L134 29M155 29L156 30L155 29M159 29L160 30L159 29M203 29L204 30L203 29M230 29L230 34L231 34L230 29z"/>
<path style="fill:#fecca4; stroke:none;" d="M257 29L258 30L257 29z"/>
<path style="fill:#a8b8c9; stroke:none;" d="M24 30L25 31L24 30M34 30L35 31L34 30M37 30L38 31L37 30M58 30L59 31L58 30M160 30L161 31L160 30M193 30L194 31L193 30M205 30L206 31L205 30z"/>
<path style="fill:#fecca4; stroke:none;" d="M254.333 30.6667L254.667 31.3333L254.333 30.6667M258 30L259 31L258 30M269 30L270 31L269 30z"/>
<path style="fill:#a8b8c9; stroke:none;" d="M12 41C17.5584 37.0858 20.1252 32.1938 27 36C21.3669 28.7004 16.0363 35.2707 12 41M25 31L26 32L25 31M35 31L36 32L35 31M38 31L39 32L38 31M59 31L60 32L59 31M156 31L157 32L156 31M194 31L195 32L194 31M207 31L208 32L207 31z"/>
<path style="fill:#fecca4; stroke:none;" d="M259 31L260 32L259 31z"/>
<path style="fill:#fcfdfe; stroke:none;" d="M12 41C21.9606 52.7913 29.9772 23.977 16.0448 36.9753C14.6579 38.2692 13.341 39.66 12 41z"/>
<path style="fill:#a8b8c9; stroke:none;" d="M26 32L27 33L26 32M36 32L37 33L36 32M39 32L40 33L39 32M60 32L61 33L60 32M83 32L83 36L84 36L83 32M157 32L158 33L157 32M161 32L162 33L161 32M196 32L197 33L196 32z"/>
<path style="fill:#fecca4; stroke:none;" d="M255 32L261 44L262 44L255 32M268 32L269 33L268 32z"/>
<path style="fill:#a8b8c9; stroke:none;" d="M27 33L28 34L27 33M37 33L38 34L37 33M40 33L39 36C45.1639 40.2644 50.3116 42.982 55 35L54 35C48.8352 39.528 44.863 36.3154 40 33M61 33L62 34L61 33M133 33L133 41L134 41L133 33M198 33L199 34L198 33M208 33L209 34L208 33M282 33L282 34L291 34L282 33M28 34L29 35L28 34M38 34L39 35L38 34M50 34L51 35L50 34z"/>
<path style="fill:#1d86d7; stroke:none;" d="M50 38L54 34L50 38z"/>
<path style="fill:#a8b8c9; stroke:none;" d="M158 34L159 35L158 34M162 34L163 35L162 34M200 34L201 35L200 34M236.333 34.6667L236.667 35.3333L236.333 34.6667M281 34L281 40L292 40L292 39L282 39L281 34M29 35L30 36L29 35M163 35L164 36L163 35M202 35L203 36L202 35M209 35L209 39L210 39L209 35M212.333 35.6667L212.667 36.3333L212.333 35.6667M30 36L31 37L30 36M40 46L40 48C36.5452 46.6584 35.4025 47.1941 33 50C35.9097 48.7882 43.4149 48.3405 41.7932 53.9252C40.8364 57.22 36.0357 60.1697 34 63L40 58L35 65C44.992 57.9615 53.9866 40.7421 66 38C59.4442 34.4694 54.1318 47.5294 48.4244 49.5694C45.4386 50.6366 42.2932 47.5023 40 46M219 36L220 37L219 36M229 36L230 37L229 36M28 37L35 44L28 37M31 37L32 38L31 37z"/>
<path style="fill:#fcfdfe; stroke:none;" d="M42 69C45.1423 64.5391 49.146 60.854 53 57L60 50C61.7806 48.2156 71.3637 34.1997 61.9954 38.7515C55.6057 41.8561 29.7758 65.4408 42 69z"/>
<path style="fill:#a8b8c9; stroke:none;" d="M80 37L81 38L80 37M84 37L85 38L84 37M160 37L161 38L160 37M164 37L166 39L166 37L164 37M235.333 37.6667L235.667 38.3333L235.333 37.6667z"/>
<path style="fill:#fecca4; stroke:none;" d="M265 37L266 38L265 37z"/>
<path style="fill:#fcfdfe; stroke:none;" d="M18 47L18 48L33 63L34 63C36.391 60.6581 42.7932 56.6745 42.7932 53.0008C42.7932 45.1632 34.1603 48.985 32 53L28 49L35 45C28.6498 36.0986 24.3836 40.6214 18 47z"/>
<path style="fill:#a8b8c9; stroke:none;" d="M32 38L33 39L32 38z"/>
<path style="fill:#1d86d7; stroke:none;" d="M49 38L50 39L49 38z"/>
<path style="fill:#a8b8c9; stroke:none;" d="M85 38L86 39L85 38M192 38L192 40L194 38L192 38M202 38L203 39L202 38M213 38L214 39L213 38M220 38L221 39L220 38M33 39L34 40L33 39M67 39L68 40L67 39M81 39L82 40L81 39M86 39L87 40L86 39M161 39L162 40L161 39M195 39L195 40L202 40L195 39M222 39L223 40L222 39M226 39L227 40L226 39M234 39L235 40L234 39M8.33333 40.6667L8.66667 41.3333L8.33333 40.6667M34 40L35 41L34 40M68.3333 40.6667L68.6667 41.3333L68.3333 40.6667M87 40L88 41L87 40M162 40L163 41L162 40M208 40L209 41L208 40M214 40L215 41L214 40M35 41L36 42L35 41M61 41L60 44L64 45L61 41M71 41L72 42L71 41M89 41L89 42L92 42L89 41M95.6667 41.3333L96.3333 41.6667L95.6667 41.3333M98 41L99 42L98 41M134 41L134 42L145 42L134 41M215 41L216 42L215 41M233 41L234 42L233 41M256 41L257 42L256 41M36 42L37 43L36 42z"/>
<path style="fill:#1d86d7; stroke:none;" d="M60 42L61 43L60 42z"/>
<path style="fill:#a8b8c9; stroke:none;" d="M67 42L68 43L67 42M70 42L71 43L70 42M84 42L85 43L84 42M191 42L192 43L191 42M206 42L207 43L206 42M216 42L217 43L216 42M9 43L10 44L9 43M37 43L38 44L37 43z"/>
<path style="fill:#1d86d7; stroke:none;" d="M61 43L62 44L61 43z"/>
<path style="fill:#a8b8c9; stroke:none;" d="M66 43L67 44L66 43M69 43L70 44L69 43M85 43L86 44L85 43M205 43L206 44L205 43M218 43L219 44L218 43M230 43L231 44L230 43M10 44L11 45L10 44M38 44L39 45L38 44z"/>
<path style="fill:#fecca4; stroke:none;" d="M60 44L60 47L61 47L60 44z"/>
<path style="fill:#1d86d7; stroke:none;" d="M62 44L63 45L62 44z"/>
<path style="fill:#a8b8c9; stroke:none;" d="M65 44L66 45L65 44M68 44L69 45L68 44M87 44L87 45L90 45L87 44M95 44L95 45L98 45L95 44M130 44L130 45L145 45L130 44M149 44L149 45L152 45L149 44M194.667 44.3333L195.333 44.6667L194.667 44.3333M202.667 44.3333L203.333 44.6667L202.667 44.3333M220.667 44.3333L221.333 44.6667L220.667 44.3333M227.667 44.3333L228.333 44.6667L227.667 44.3333M16 45L17 46L16 45M34 45L35 46L34 45M39 45L40 46L39 45z"/>
<path style="fill:#ff8d3c; stroke:none;" d="M60 45L61 46L60 45z"/>
<path style="fill:#a8b8c9; stroke:none;" d="M64 45L65 46L64 45M67 45L68 46L67 45M12 46L13 47L12 46M33 46L34 47L33 46M44 58L44 59L46 62L48 58L52 57L50 54L55 54C56.6931 51.4604 59.4215 50.6843 56 50L56 49L61 48C54.3051 44.7352 48.4694 53.9234 44 58z"/>
<path style="fill:#1d86d7; stroke:none;" d="M57 46L58 47L57 46z"/>
<path style="fill:#a8b8c9; stroke:none;" d="M63 46L64 47L63 46M66 46L67 47L66 46M13 47L14 48L13 47M32 47L33 48L32 47M62 47L63 48L62 47M65 47L66 48L65 47M29.6667 48.3333L30.3333 48.6667L29.6667 48.3333M61 48L62 49L61 48M64 48L65 49L64 48M15 49L16 50L15 49M28.3333 49.6667L28.6667 50.3333L28.3333 49.6667M48 49L49 50L48 49z"/>
<path style="fill:#fcfdfe; stroke:none;" d="M56 49L57 50L56 49z"/>
<path style="fill:#1d86d7; stroke:none;" d="M57 49L58 50L57 49z"/>
<path style="fill:#a8b8c9; stroke:none;" d="M60 49L61 50L60 49M63 49L64 50L63 49M16 50L17 51L16 50z"/>
<path style="fill:#1d86d7; stroke:none;" d="M55 50L54 52L55 50z"/>
<path style="fill:#a8b8c9; stroke:none;" d="M59 50L60 51L59 50M62 50L63 51L62 50z"/>
<path style="fill:#1d86d7; stroke:none;" d="M52 51L53 52L52 51z"/>
<path style="fill:#a8b8c9; stroke:none;" d="M58 51L59 52L58 51M61 51L62 52L61 51M18 52L19 53L18 52M30.6667 52.3333L31.3333 52.6667L30.6667 52.3333z"/>
<path style="fill:#fcfdfe; stroke:none;" d="M51 52L52 53L51 52z"/>
<path style="fill:#a8b8c9; stroke:none;" d="M57 52L58 53L57 52M60 52L61 53L60 52M19 53L20 54L19 53M56 53L57 54L56 53M59 53L60 54L59 53M52 54L53 55L52 54M55 54L56 55L55 54M58 54L59 55L58 54z"/>
<path style="fill:#fecca4; stroke:none;" d="M81 54L81 56L83 54L81 54M87 54L89 56L87 54M104 54L105 55L104 54z"/>
<path style="fill:#ff8d3c; stroke:none;" d="M105 54L104 63L106 63L105 54M120 54L122 63L123 63L125 54L120 54z"/>
<path style="fill:#fecca4; stroke:none;" d="M125.333 54.6667L125.667 55.3333L125.333 54.6667z"/>
<path style="fill:#ff8d3c; stroke:none;" d="M140 54L140 63L141 63L142 60L144 64L145 64L143 59C146.077 56.2858 142.936 54.6388 140 54z"/>
<path style="fill:#fecca4; stroke:none;" d="M143 54L144 55L143 54M162 55L162 56L165 56L162 55M186 54L187 55L186 54z"/>
<path style="fill:#ff8d3c; stroke:none;" d="M189 63L186 61C189.172 65.7092 192.787 60.2841 187 57L187 56L191 56C185.737 50.1955 188.585 61.0411 189 63M208.318 55.0471C203.596 57.9387 207.792 65.5925 212.852 62.9282C218.36 60.0284 213.293 52.0001 208.318 55.0471z"/>
<path style="fill:#fecca4; stroke:none;" d="M213 54L214 55L213 54M230 54L231 55L230 54z"/>
<path style="fill:#ff8d3c; stroke:none;" d="M231 54C229.751 58.2371 229.225 62.4151 234 64L231 54z"/>
<path style="fill:#fecca4; stroke:none;" d="M248 54L248 62L249 62L248 54z"/>
<path style="fill:#ff8d3c; stroke:none;" d="M249 54C249.009 65.0637 255.961 64.9523 256 54L255 54L251 63L249 54z"/>
<path style="fill:#fecca4; stroke:none;" d="M254 54L254 61L255 61L254 54z"/>
<path style="fill:#ff8d3c; stroke:none;" d="M274 63L270 61C276.039 66.9885 274.767 58.8468 272 55L276 56C269.116 50.9219 273.347 60.185 274 63z"/>
<path style="fill:#fecca4; stroke:none;" d="M275 54L276 55L275 54M290 54L292 64L290 54z"/>
<path style="fill:#ff8d3c; stroke:none;" d="M291 54L291 63L292 63L291 54z"/>
<path style="fill:#a8b8c9; stroke:none;" d="M21 55L22 56L21 55M54 55L55 56L54 55M57 55L58 56L57 55z"/>
<path style="fill:#ff8d3c; stroke:none;" d="M82 55L80 63L81 63L82 58L83 58L85 63L87 58L88 58L89 63L90 63L88 55L85 60L82 55z"/>
<path style="fill:#fecca4; stroke:none;" d="M141 55L143 59L143 55L141 55z"/>
<path style="fill:#ff8d3c; stroke:none;" d="M163 55L160 63L161 63L167 63L163 55z"/>
<path style="fill:#fecca4; stroke:none;" d="M188.667 55.3333L189.333 55.6667L188.667 55.3333M191 55L192 56L191 55M207 58L212 56L207 58M214 55L215 56L214 55M270 55L271 56L270 55M272.667 55.3333L273.333 55.6667L272.667 55.3333z"/>
<path style="fill:#a8b8c9; stroke:none;" d="M22 56L23 57L22 56M53 56L54 57L53 56M56 56L57 57L56 56z"/>
<path style="fill:#fecca4; stroke:none;" d="M83 56L84 57L83 56M86 56L87 57L86 56M123 56L122 64L123 56z"/>
<path style="fill:#fcfdfe; stroke:none;" d="M142 56L142 58L144 58L144 56L142 56z"/>
<path style="fill:#fecca4; stroke:none;" d="M145.333 56.6667L145.667 57.3333L145.333 56.6667M187 56L188 57L187 56z"/>
<path style="fill:#fcfdfe; stroke:none;" d="M209.357 57.0818C206.445 58.938 209.85 62.6778 212.382 60.9182C215.046 59.0665 211.965 55.4197 209.357 57.0818z"/>
<path style="fill:#fecca4; stroke:none;" d="M213 56L214 57L213 56M215 56L216 57L215 56z"/>
<path style="fill:#fcfdfe; stroke:none;" d="M47 57L48 58L47 57z"/>
<path style="fill:#a8b8c9; stroke:none;" d="M52 57L53 58L52 57M55 57L56 58L55 57z"/>
<path style="fill:#fecca4; stroke:none;" d="M161 57L162 58L161 57M163 57L164 58L163 57M188 57L189 58L188 57M205 57L205 60L206 60L205 57M270 57L271 58L270 57M273 57L274 58L273 57z"/>
<path style="fill:#a8b8c9; stroke:none;" d="M24 58L25 59L24 58M51 58L52 59L51 58M54 58L55 59L54 58z"/>
<path style="fill:#fecca4; stroke:none;" d="M82 58L83 59L82 58M87 58L88 59L87 58M89.3333 58.6667L89.6667 59.3333L89.3333 58.6667z"/>
<path style="fill:#fcfdfe; stroke:none;" d="M163.333 58.6667L163.667 59.3333L163.333 58.6667z"/>
<path style="fill:#fecca4; stroke:none;" d="M165 58L166 59L165 58M190 58L191 59L190 58M214.333 58.6667L214.667 59.3333L214.333 58.6667M271 58L272 59L271 58z"/>
<path style="fill:#a8b8c9; stroke:none;" d="M25 59L26 60L25 59M50 59L51 60L50 59M53 59L54 60L53 59z"/>
<path style="fill:#fecca4; stroke:none;" d="M80 59L81 60L80 59M84.6667 59.3333L85.3333 59.6667L84.6667 59.3333M143.333 59.6667L143.667 60.3333L143.333 59.6667M160 59L161 60L160 59M162 59L163 60L162 59M164 59L165 60L164 59M188 59L189 60L188 59M191 59L192 60L191 59M273 59L274 60L273 59z"/>
<path style="fill:#a8b8c9; stroke:none;" d="M42 60L46 63L42 60M49 60L50 61L49 60M52 60L53 61L52 60z"/>
<path style="fill:#fecca4; stroke:none;" d="M83 60L84 61L83 60M86 60L87 61L86 60M141 60L141 63L143 62L143 61L141 60M166 60L167 61L166 60M207 60L208 61L207 60M274.333 60.6667L274.667 61.3333L274.333 60.6667M276.333 60.6667L276.667 61.3333L276.333 60.6667z"/>
<path style="fill:#a8b8c9; stroke:none;" d="M27 61L28 62L27 61M41 61L44 65L44 64L41 61M48 61L49 62L48 61M51 61L52 62L51 61z"/>
<path style="fill:#fecca4; stroke:none;" d="M81 61L82 62L81 61M88.3333 61.6667L88.6667 62.3333L88.3333 61.6667M144 61L145 62L144 61M161 61L161 62L165 62L161 61M185 61L186 62L185 61M187 61L188 62L187 61M208 61L209 62L208 61M215 61L216 62L215 61M250 61L251 62L250 61M271 61L272 62L271 61z"/>
<path style="fill:#a8b8c9; stroke:none;" d="M28 62L29 63L28 62M47 62L48 63L47 62M50 62L51 63L50 62z"/>
<path style="fill:#fecca4; stroke:none;" d="M79 62L79 64L81 64L79 62M159 62L159 64L161 64L159 62M167 62L166 64L168 64L167 62M188 62L189 63L188 62M191 62L192 63L191 62M210 62L211 63L210 62M214 62L215 63L214 62M234.333 62.6667L234.667 63.3333L234.333 62.6667M251.667 62.3333L252.333 62.6667L251.667 62.3333M270 62L271 63L270 62M273 62L274 63L273 62z"/>
<path style="fill:#a8b8c9; stroke:none;" d="M40 72L50 63C44.8335 63.797 41.3765 66.9425 40 72z"/>
<path style="fill:#fecca4; stroke:none;" d="M84 63L85 64L84 63M89 63L90 64L89 63M104.667 63.3333L105.333 63.6667L104.667 63.3333M140 63L141 64L140 63M145 63L146 64L145 63M190 63L191 64L190 63M208 63L209 64L208 63M230 63L231 64L230 63M250 63L251 64L250 63M254 63L255 64L254 63M271 63L272 64L271 63z"/>
<path style="fill:#a8b8c9; stroke:none;" d="M30 64L31 65L30 64M31 65L32 66L31 65M33 67L34 68L33 67M34 68L35 69L34 68M36 70L37 71L36 70M37 71L38 72L37 71M39 72L40 73L39 72z"/>
</svg>
