<svg xmlns="http://www.w3.org/2000/svg" width="99" height="52" viewBox="0 0 99 52" fill="none"><g clip-path="url(#clip0_515_2)"><path d="M31.7586 17.1811C31.2422 15.3266 30.3448 13.5948 29.1215 12.0917C27.8982 10.5885 26.3746 9.34567 24.644 8.43909C22.9133 7.53251 21.0121 6.98129 19.0565 6.81916C17.1008 6.65702 15.132 6.88738 13.2704 7.49614C13.1099 7.54415 12.9608 7.62319 12.832 7.72857C12.7032 7.83396 12.5973 7.96355 12.5204 8.10971C12.4436 8.25587 12.3975 8.41563 12.3847 8.57954C12.372 8.74346 12.3929 8.90822 12.4463 9.06408C12.4996 9.21994 12.5843 9.36375 12.6954 9.48702C12.8064 9.61029 12.9416 9.71051 13.0928 9.78177C13.2441 9.85303 13.4084 9.89388 13.576 9.90191C13.7437 9.90993 13.9112 9.88498 14.0689 9.82852C15.606 9.32688 17.2313 9.13743 18.8457 9.27175C20.46 9.40607 22.0295 9.86134 23.4582 10.6097C24.8868 11.3581 26.1447 12.3839 27.155 13.6245C28.1653 14.8651 28.9067 16.2944 29.334 17.825C29.406 18.0859 29.5637 18.3162 29.7827 18.4805C30.0017 18.6448 30.2698 18.734 30.5456 18.7342C30.6568 18.7342 30.7676 18.7199 30.875 18.6918C31.0344 18.6495 31.1837 18.5769 31.3143 18.4781C31.445 18.3792 31.5545 18.2561 31.6365 18.1158C31.7186 17.9755 31.7716 17.8208 31.7926 17.6604C31.8135 17.5 31.802 17.3371 31.7586 17.1811V17.1811Z" fill="#FFB600"></path><path d="M11.3971 40.5828H11.4697C11.8021 40.5641 12.1133 40.417 12.335 40.1737C12.5567 39.9304 12.6707 39.6109 12.652 39.2854C12.4186 35.1584 10.9193 31.1964 8.34998 27.9174C8.33882 27.901 8.32625 27.886 8.31369 27.8709V27.8641C7.24596 26.4618 6.51362 24.8423 6.17078 23.1255C5.82794 21.4087 5.88337 19.6384 6.33296 17.9453C6.37476 17.789 6.3847 17.6261 6.36221 17.4659C6.33972 17.3058 6.28525 17.1515 6.20191 17.012C6.11856 16.8725 6.00798 16.7504 5.87646 16.6528C5.74495 16.5551 5.59509 16.4838 5.43543 16.4428C5.27577 16.4019 5.10944 16.3922 4.94594 16.4142C4.78244 16.4362 4.62496 16.4896 4.48251 16.5712C4.34006 16.6528 4.21543 16.7611 4.11571 16.8899C4.016 17.0188 3.94317 17.1655 3.90138 17.3219C3.35725 19.3703 3.28936 21.5121 3.70271 23.5896C4.11605 25.6671 5.0001 27.6272 6.28969 29.3256L6.29946 29.3379L6.34553 29.3981C8.61361 32.2884 9.93747 35.7823 10.1437 39.4221C10.1618 39.7357 10.3018 40.0307 10.5349 40.2465C10.7679 40.4623 11.0764 40.5826 11.3971 40.5828Z" fill="#FFB600"></path><path d="M23.6333 43.4525C19.8042 44.2195 15.856 44.2167 12.0281 43.4443C11.8665 43.4113 11.6999 43.4099 11.5377 43.44C11.3756 43.4702 11.2211 43.5313 11.083 43.6199C10.945 43.7085 10.8261 43.8229 10.7332 43.9565C10.6403 44.0901 10.5752 44.2403 10.5415 44.3986C10.5079 44.5568 10.5064 44.72 10.5372 44.8789C10.5679 45.0377 10.6303 45.189 10.7208 45.3242C10.8113 45.4594 10.928 45.5759 11.0644 45.6669C11.2009 45.7579 11.3542 45.8217 11.5158 45.8546C15.6805 46.6979 19.9771 46.7002 24.1428 45.8614C24.3078 45.8323 24.4652 45.771 24.6057 45.6813C24.7461 45.5916 24.8668 45.4753 24.9607 45.3392C25.0545 45.2031 25.1196 45.0499 25.1521 44.8888C25.1845 44.7277 25.1838 44.5618 25.1497 44.401C25.1157 44.2401 25.0492 44.0876 24.954 43.9524C24.8589 43.8171 24.7371 43.7019 24.5957 43.6135C24.4544 43.5251 24.2964 43.4653 24.1311 43.4377C23.9658 43.41 23.7966 43.4151 23.6333 43.4525V43.4525Z" fill="#FFB600"></path><path d="M21.2409 49.2C18.9909 49.6525 16.6706 49.6525 14.4207 49.2C14.2582 49.1644 14.0901 49.1609 13.9262 49.1895C13.7623 49.2182 13.6058 49.2785 13.4659 49.3669C13.326 49.4552 13.2054 49.57 13.1112 49.7044C13.017 49.8389 12.951 49.9903 12.917 50.15C12.8831 50.3096 12.8819 50.4743 12.9135 50.6344C12.9451 50.7945 13.0088 50.9468 13.1011 51.0826C13.1933 51.2183 13.3122 51.3348 13.4508 51.4251C13.5894 51.5155 13.7449 51.578 13.9084 51.6089C16.4951 52.1321 19.1637 52.1321 21.7504 51.6089C22.0767 51.5428 22.3628 51.3523 22.5458 51.0795C22.7288 50.8067 22.7936 50.4739 22.7261 50.1543C22.6585 49.8346 22.4641 49.5544 22.1855 49.3752C21.907 49.196 21.5672 49.1324 21.2409 49.1986V49.2Z" fill="#FFB600"></path><path d="M14.2726 11.6647C14.8728 12.2115 14.9119 13.442 14.9356 14.6834C14.9119 15.9138 14.8728 17.1579 14.2726 17.7034C13.7142 18.2927 12.458 18.3309 11.1891 18.3528C9.93284 18.3309 8.664 18.2927 8.10566 17.7034C7.50404 17.1565 7.46496 15.9261 7.44263 14.6834C7.46496 13.4529 7.50404 12.2102 8.10566 11.6647C8.664 11.0754 9.92028 11.0371 11.1891 11.0153C12.4524 11.0371 13.7142 11.074 14.2726 11.6647Z" fill="white"></path><path d="M8.8205 1.59543C9.18482 1.92628 9.21273 2.67275 9.22111 3.41785C9.21273 4.16843 9.18482 4.92173 8.8205 5.24575C8.4841 5.60121 7.72056 5.62445 6.95702 5.63813C6.19489 5.62445 5.43135 5.60121 5.09495 5.24575C4.73063 4.92173 4.7069 4.16843 4.69434 3.41785C4.7069 2.67002 4.73063 1.92355 5.09495 1.59269C5.43135 1.23723 6.19489 1.21399 6.95702 1.20032C7.72056 1.21672 8.4841 1.23997 8.8205 1.59543Z" fill="white"></path><path d="M4.12756 11.1069C4.49048 11.4363 4.51421 12.1842 4.52817 12.932C4.51421 13.6799 4.49048 14.4263 4.12756 14.7572C3.78976 15.1126 3.02762 15.1359 2.26409 15.1496C1.50055 15.1359 0.737014 15.1126 0.400612 14.7572C0.0376882 14.4263 0.0139586 13.6799 0 12.932C0.0139586 12.1842 0.0376882 11.4363 0.400612 11.1069C0.737014 10.7514 1.50055 10.7281 2.26409 10.7145C3.02762 10.7281 3.78976 10.7514 4.12756 11.1069Z" fill="white"></path><path d="M9.93288 7.26784C10.1437 7.45924 10.1576 7.89263 10.166 8.32602C10.1744 8.75941 10.1437 9.1928 9.93288 9.3842C9.7221 9.57561 9.29497 9.60432 8.85248 9.61252C8.40999 9.62072 7.9675 9.59065 7.77208 9.3842C7.57666 9.17776 7.54875 8.75941 7.53758 8.32602C7.52641 7.89263 7.55852 7.45924 7.76929 7.26784C7.98007 7.07644 8.4072 7.04909 8.84969 7.04089C9.29218 7.03269 9.73745 7.0614 9.93288 7.26784Z" fill="white"></path><path d="M3.80942 6.80709C4.02019 6.99849 4.03275 7.43188 4.04113 7.86527C4.0495 8.29866 4.02019 8.73205 3.80942 8.92345C3.59864 9.11485 3.17151 9.14356 2.72902 9.1504C2.28653 9.15724 1.84405 9.12989 1.64862 8.92345C1.4532 8.71701 1.42389 8.29866 1.41552 7.86527C1.40714 7.43188 1.43785 6.99849 1.64862 6.80709C1.8594 6.61568 2.28653 6.58697 2.72902 6.58014C3.17151 6.5733 3.614 6.60064 3.80942 6.80709Z" fill="white"></path><path d="M14.0856 3.23476C14.2964 3.42616 14.3104 3.85955 14.3188 4.29294C14.3271 4.72633 14.2964 5.15972 14.0856 5.35112C13.8749 5.54253 13.4477 5.57124 13.0052 5.57944C12.5628 5.58764 12.1203 5.55757 11.9249 5.35112C11.7294 5.14468 11.7015 4.72633 11.6931 4.29294C11.6848 3.85955 11.7141 3.42616 11.9249 3.23476C12.1356 3.04336 12.5628 3.01601 13.0052 3.00781C13.4477 2.99961 13.8902 3.02832 14.0856 3.23476Z" fill="white"></path><path d="M3.39047 0.226946C3.60125 0.418349 3.61381 0.851739 3.62916 1.28513C3.64452 1.71852 3.60823 2.15191 3.39745 2.34331C3.18668 2.53472 2.75954 2.56343 2.31705 2.57163C1.87457 2.57983 1.43208 2.54975 1.23666 2.34331C1.04124 2.13687 1.00495 1.71852 0.996571 1.28513C0.988196 0.851739 1.0189 0.418349 1.22968 0.226946C1.44045 0.0355433 1.86759 0.00820005 2.31008 -2.92028e-06C2.75256 -0.00820589 3.19505 0.0205045 3.39047 0.226946Z" fill="white"></path><path d="M31.5324 25.1831C30.5916 24.4467 29.3782 24.0785 27.892 24.0785C26.3858 24.0646 24.9053 24.4618 23.6165 25.2255C23.4587 25.3181 23.3279 25.4491 23.2369 25.6057C23.1459 25.7624 23.0978 25.9394 23.0973 26.1197C23.0968 26.3333 23.1658 26.5416 23.2941 26.7144C23.4456 26.9198 23.6688 27.0638 23.9214 27.1189C24.174 27.1741 24.4385 27.1367 24.6648 27.0138C25.6447 26.497 26.5939 26.2386 27.5124 26.2386C29.3735 26.2386 30.3041 27.0589 30.3041 28.6995V29.1643H26.8731C25.3069 29.1643 24.066 29.466 23.1503 30.0694C22.2346 30.6728 21.7763 31.5842 21.7754 32.8037C21.7754 34.0205 22.2058 34.9921 23.0666 35.7185C23.9273 36.4449 25.0143 36.8095 26.3273 36.8122C28.0814 36.8122 29.4801 36.2006 30.5232 34.9775V35.5954C30.5232 35.7309 30.5505 35.8651 30.6035 35.9902C30.6565 36.1154 30.7341 36.2291 30.832 36.3248C30.9299 36.4206 31.0461 36.4965 31.1739 36.5482C31.3018 36.5999 31.4388 36.6265 31.5771 36.6263H31.8898C32.0281 36.6265 32.1651 36.5999 32.293 36.5482C32.4208 36.4965 32.537 36.4206 32.6349 36.3248C32.7328 36.2291 32.8104 36.1154 32.8634 35.9902C32.9164 35.8651 32.9437 35.7309 32.9437 35.5954V28.6544C32.9427 27.0758 32.4723 25.9187 31.5324 25.1831ZM30.2873 32.019C30.299 32.3848 30.2185 32.7477 30.053 33.0758C29.8874 33.4039 29.6419 33.687 29.3382 33.9002C28.6979 34.3663 27.9178 34.6111 27.1201 34.5961C26.2742 34.5961 25.6145 34.4375 25.1408 34.1203C24.9106 33.9695 24.7241 33.763 24.5993 33.5209C24.4746 33.2787 24.4159 33.009 24.4289 32.7381C24.4289 31.5605 25.3855 30.9722 27.2988 30.9731H30.2901L30.2873 32.019Z" fill="white"></path><path d="M47.3505 19.3864H46.8005C46.5213 19.3864 46.2534 19.4949 46.0558 19.6882C45.8582 19.8815 45.747 20.1437 45.7467 20.4172V26.1688C44.7174 24.7762 43.3616 24.0794 41.6791 24.0785C40.8736 24.0678 40.0739 24.2143 39.3267 24.5094C38.5795 24.8044 37.8997 25.2421 37.3268 25.797C36.1106 26.9445 35.5024 28.4775 35.5024 30.3961C35.5024 32.3147 36.0952 33.8641 37.2808 35.0445C38.4672 36.222 39.8585 36.8104 41.4544 36.8095C43.336 36.8095 44.7668 36.1259 45.7467 34.7587V35.579C45.7467 35.7145 45.7739 35.8487 45.8269 35.9738C45.8799 36.099 45.9575 36.2127 46.0554 36.3084C46.1533 36.4042 46.2695 36.4801 46.3973 36.5318C46.5252 36.5835 46.6622 36.61 46.8005 36.6099H47.3505C47.4888 36.61 47.6257 36.5835 47.7535 36.5318C47.8813 36.48 47.9974 36.4041 48.0951 36.3083C48.1929 36.2126 48.2704 36.0989 48.3232 35.9737C48.3761 35.8486 48.4032 35.7144 48.403 35.579V20.4035C48.3993 20.1325 48.2868 19.8738 48.0898 19.6834C47.8928 19.4931 47.6272 19.3863 47.3505 19.3864V19.3864ZM44.6984 33.382C44.3627 33.7427 43.9527 34.0295 43.4956 34.2237C43.0385 34.4179 42.5445 34.515 42.0462 34.5085C41.5382 34.512 41.0347 34.4149 40.566 34.2229C40.0973 34.031 39.673 33.7482 39.3187 33.3916C38.5445 32.6487 38.1569 31.6853 38.156 30.5014C38.155 29.3174 38.5352 28.3303 39.2964 27.5401C39.6385 27.164 40.0587 26.8637 40.5288 26.6593C40.9989 26.4548 41.5082 26.351 42.0225 26.3548C42.5303 26.3485 43.0334 26.4514 43.4962 26.6562C43.959 26.861 44.3703 27.1627 44.7012 27.5401C45.4279 28.3294 45.7923 29.3124 45.7941 30.4891C45.796 31.6657 45.4321 32.6301 44.7026 33.382H44.6984Z" fill="white"></path><path d="M60.7199 25.1832C59.7791 24.4467 58.5656 24.0785 57.0795 24.0785C55.5736 24.0641 54.0934 24.4613 52.8054 25.2256C52.6473 25.3179 52.5164 25.4489 52.4254 25.6056C52.3344 25.7623 52.2864 25.9394 52.2861 26.1197C52.2858 26.3331 52.3542 26.5412 52.4815 26.7144C52.6333 26.92 52.8568 27.0639 53.1096 27.1191C53.3624 27.1743 53.6271 27.1368 53.8537 27.0138C54.8317 26.497 55.7804 26.2386 56.6998 26.2386C58.561 26.2386 59.4939 27.0589 59.4985 28.6995V29.1643H56.0605C54.4944 29.1643 53.253 29.466 52.3364 30.0694C51.4197 30.6728 50.9614 31.5842 50.9614 32.8037C50.9614 34.0205 51.3923 34.9921 52.254 35.7185C53.1157 36.4449 54.2022 36.8095 55.5133 36.8123C57.2712 36.8123 58.6708 36.2007 59.7121 34.9775V35.5955C59.7121 35.8686 59.8228 36.1306 60.0199 36.3239C60.2169 36.5172 60.4843 36.626 60.7632 36.6263H61.0786C61.2168 36.6265 61.3537 36.5999 61.4814 36.5482C61.6091 36.4964 61.7251 36.4205 61.8228 36.3247C61.9204 36.2289 61.9978 36.1152 62.0505 35.9901C62.1032 35.8649 62.1301 35.7308 62.1297 35.5955V28.6544C62.1297 27.0758 61.6598 25.9187 60.7199 25.1832ZM59.4762 32.019C59.4876 32.3847 59.407 32.7476 59.2415 33.0757C59.0759 33.4038 58.8306 33.6869 58.527 33.9002C57.8868 34.3664 57.1066 34.6111 56.309 34.5961C55.4631 34.5961 54.8028 34.4375 54.3282 34.1203C54.0982 33.9695 53.9118 33.7629 53.7874 33.5208C53.6629 33.2786 53.6044 33.0089 53.6178 32.7381C53.6178 31.5605 54.5744 30.9722 56.4876 30.9731H59.4762V32.019Z" fill="white"></path><path d="M68.0341 19.4793C67.7596 19.2178 67.4011 19.0573 67.0195 19.0251C66.6379 18.9928 66.2567 19.0909 65.9405 19.3025C65.6243 19.5142 65.3925 19.8265 65.2846 20.1864C65.1766 20.5463 65.1991 20.9317 65.3482 21.2773C65.4972 21.6228 65.7637 21.9073 66.1025 22.0823C66.4412 22.2574 66.8314 22.3123 67.2068 22.2377C67.5821 22.1632 67.9196 21.9638 68.162 21.6733C68.4044 21.3829 68.5368 21.0193 68.5367 20.6441C68.5388 20.4266 68.4953 20.211 68.4088 20.0106C68.3224 19.8103 68.1949 19.6294 68.0341 19.4793V19.4793ZM67.0989 24.2644H66.5489C66.4107 24.264 66.2738 24.2904 66.1461 24.342C66.0183 24.3936 65.9022 24.4694 65.8044 24.565C65.7066 24.6607 65.6291 24.7743 65.5762 24.8994C65.5234 25.0244 65.4963 25.1585 65.4965 25.2939V35.5886C65.4963 35.724 65.5234 35.8581 65.5762 35.9833C65.629 36.1084 65.7065 36.2221 65.8043 36.3179C65.9021 36.4137 66.0182 36.4896 66.146 36.5413C66.2737 36.5931 66.4107 36.6196 66.5489 36.6194H67.0989C67.2372 36.6196 67.3741 36.5931 67.5019 36.5413C67.6297 36.4896 67.7458 36.4137 67.8435 36.3179C67.9413 36.2221 68.0188 36.1084 68.0717 35.9833C68.1245 35.8581 68.1516 35.724 68.1514 35.5886V25.2925C68.1512 25.1574 68.1238 25.0236 68.0708 24.8988C68.0178 24.7741 67.9402 24.6608 67.8425 24.5654C67.7447 24.4701 67.6287 24.3945 67.5011 24.3431C67.3736 24.2917 67.2369 24.2654 67.0989 24.2658V24.2644Z" fill="white"></path><path d="M82.7004 19.3864H82.1505C81.8713 19.3864 81.6036 19.495 81.4062 19.6883C81.2089 19.8816 81.098 20.1438 81.098 20.4172V26.1688C80.0744 24.7762 78.719 24.0794 77.0318 24.0785C76.2262 24.0675 75.4264 24.2138 74.6792 24.5088C73.9319 24.8039 73.2521 25.2418 72.6795 25.797C71.4614 26.9445 70.8528 28.4775 70.8538 30.3961C70.8547 32.3147 71.447 33.8641 72.6307 35.0445C73.8172 36.222 75.2088 36.8104 76.8057 36.8095C78.6864 36.8095 80.1172 36.1259 81.098 34.7587V35.579C81.0978 35.7144 81.1249 35.8486 81.1777 35.9737C81.2306 36.0989 81.3081 36.2126 81.4058 36.3083C81.5036 36.4041 81.6197 36.48 81.7475 36.5318C81.8753 36.5835 82.0122 36.61 82.1505 36.6099H82.7004C82.8387 36.61 82.9756 36.5835 83.1034 36.5318C83.2312 36.48 83.3473 36.4041 83.4451 36.3083C83.5428 36.2126 83.6203 36.0989 83.6732 35.9737C83.726 35.8486 83.7531 35.7144 83.7529 35.579V20.4035C83.7492 20.1325 83.6367 19.8738 83.4398 19.6834C83.2428 19.4931 82.9772 19.3863 82.7004 19.3864V19.3864ZM80.0483 33.382C79.7123 33.7423 79.3023 34.029 78.8453 34.2231C78.3882 34.4173 77.8943 34.5145 77.3962 34.5085C76.8879 34.5122 76.3841 34.4151 75.9152 34.2232C75.4462 34.0312 75.0217 33.7484 74.6673 33.3916C73.8921 32.6487 73.5054 31.6853 73.5073 30.5014C73.5092 29.3174 73.8884 28.3303 74.6449 27.5401C74.9871 27.164 75.4072 26.8637 75.8774 26.6593C76.3475 26.4548 76.8567 26.351 77.371 26.3548C77.8793 26.3485 78.3827 26.4513 78.846 26.6561C79.3093 26.8609 79.7211 27.1627 80.0525 27.5401C80.7783 28.3294 81.1417 29.3124 81.1427 30.4891C81.1436 31.6657 80.7811 32.6301 80.0553 33.382H80.0483Z" fill="white"></path><path d="M97.1979 25.6001C95.9965 24.5875 94.5388 24.0803 92.8247 24.0784C91.164 24.0594 89.5614 24.676 88.3579 25.797C87.0933 26.9445 86.4609 28.4889 86.4609 30.4303C86.4609 32.3716 87.0812 33.9211 88.3216 35.0786C89.563 36.2325 91.0691 36.8094 92.84 36.8094C94.5821 36.8094 96.0621 36.3697 97.2803 35.4901C97.3979 35.4036 97.4957 35.2937 97.5673 35.1678C97.6389 35.0419 97.6827 34.9026 97.6959 34.759C97.709 34.6155 97.6913 34.4708 97.6437 34.3344C97.5962 34.1979 97.5199 34.0728 97.4198 33.9671L97.3277 33.8673C97.1518 33.6833 96.9121 33.57 96.6556 33.5498C96.399 33.5296 96.1439 33.6038 95.9402 33.7579C95.179 34.3048 94.2066 34.5782 93.0229 34.5782C92.0717 34.5915 91.1416 34.3038 90.3707 33.7579C90.0049 33.5149 89.7011 33.1924 89.4833 32.8156C89.2654 32.4388 89.1392 32.0179 89.1145 31.5855H97.9503C98.2293 31.5852 98.4968 31.4764 98.6941 31.2832C98.8914 31.09 99.0024 30.828 99.0027 30.5547V29.7959C99.0009 28.0131 98.3993 26.6145 97.1979 25.6001ZM89.1117 29.5375C89.1117 28.5468 89.4988 27.7611 90.273 27.1805C91.0202 26.6074 91.944 26.2998 92.8931 26.3083C93.7879 26.2828 94.6612 26.5801 95.347 27.1436C96.0114 27.7032 96.3436 28.5012 96.3436 29.5375H89.1117Z" fill="white"></path></g><defs><clipPath id="clip0_515_2"><rect width="99" height="52" fill="white"></rect></clipPath></defs></svg>