<?xml version="1.0" standalone="yes"?>
<svg xmlns="http://www.w3.org/2000/svg" width="512" height="512">
<path style="fill:#ffffff; stroke:none;" d="M0 0L0 512L512 512L512 0L0 0z"/>
<path style="fill:#2c1053; stroke:none;" d="M20 20L20 492L492 492L492 20L20 20z"/>
<path style="fill:#caa03f; stroke:none;" d="M27 26L27 27L485 27L485 485C488.507 476.643 486 463.06 486 454L486 382L486 133L486 54C486 48.6195 488.846 30.5517 484.397 27.0278C478.873 22.653 459.974 26 453 26L366 26L27 26z"/>
<path style="fill:#92714c; stroke:none;" d="M485 26L486 27L485 26z"/>
<path style="fill:#ffcd33; stroke:none;" d="M27 27L27 485L485 485L485 27L27 27z"/>
<path style="fill:#2c1053; stroke:none;" d="M108 35L108 58C198.445 58 277.526 162.181 223.655 245C200.504 280.591 158.03 314.84 115 321.561C89.8299 325.492 61.4884 322 36 322L36 476L58 476C58 395.326 147.398 340.659 219 378.32C243.94 391.438 264.402 415.066 272.971 442C276.587 453.363 276.861 464.479 279 476L477 476L477 333L455 333C455 344.931 453 355.979 448.28 367C418.716 436.037 320.196 438.747 287.259 371C271.557 338.702 278 295.885 278 261L278 35L108 35z"/>
<path style="fill:#caa03f; stroke:none;" d="M119.667 58.3333L120.333 58.6667L119.667 58.3333z"/>
<path style="fill:#92714c; stroke:none;" d="M121.667 58.3333L122.333 58.6667L121.667 58.3333z"/>
<path style="fill:#caa03f; stroke:none;" d="M127.667 59.3333L128.333 59.6667L127.667 59.3333z"/>
<path style="fill:#92714c; stroke:none;" d="M129 59L130 60L129 59z"/>
<path style="fill:#caa03f; stroke:none;" d="M134 60L135 61L134 60M138 61L139 62L138 61z"/>
<path style="fill:#92714c; stroke:none;" d="M139 61L140 62L139 61M143 62L144 63L143 62M146 63L147 64L146 63z"/>
<path style="fill:#caa03f; stroke:none;" d="M149 64L150 65L149 64M152 65L153 66L152 65z"/>
<path style="fill:#92714c; stroke:none;" d="M155 66L156 67L155 66z"/>
<path style="fill:#caa03f; stroke:none;" d="M157 67L158 68L157 67z"/>
<path style="fill:#92714c; stroke:none;" d="M158 67L159 68L158 67M160 68L161 69L160 68z"/>
<path style="fill:#caa03f; stroke:none;" d="M162 69L163 70L162 69M164 70L165 71L164 70M168 72L169 73L168 72M172 74L173 75L172 74z"/>
<path style="fill:#92714c; stroke:none;" d="M174 75L175 76L174 75M176 76L177 77L176 76M179 78L180 79L179 78M182 80L183 81L182 80M185 82L186 83L185 82z"/>
<path style="fill:#caa03f; stroke:none;" d="M186 83L187 84L186 83z"/>
<path style="fill:#92714c; stroke:none;" d="M189 85L190 86L189 85z"/>
<path style="fill:#caa03f; stroke:none;" d="M190 86L191 87L190 86z"/>
<path style="fill:#92714c; stroke:none;" d="M194 89L195 90L194 89M195 90L196 91L195 90z"/>
<path style="fill:#caa03f; stroke:none;" d="M196 91L197 92L196 91M197 92L198 93L197 92M278 92L278 235L279 235L279 135C279 122.794 282.707 103.218 278 92M206 101L207 102L206 101M207 102L208 103L207 102z"/>
<path style="fill:#92714c; stroke:none;" d="M208 103L209 104L208 103M209 104L210 105L209 104z"/>
<path style="fill:#caa03f; stroke:none;" d="M212 108L213 109L212 108z"/>
<path style="fill:#92714c; stroke:none;" d="M213 109L214 110L213 109z"/>
<path style="fill:#caa03f; stroke:none;" d="M215 112L216 113L215 112z"/>
<path style="fill:#92714c; stroke:none;" d="M216 113L217 114L216 113z"/>
<path style="fill:#caa03f; stroke:none;" d="M217 115L218 116L217 115z"/>
<path style="fill:#92714c; stroke:none;" d="M218 116L219 117L218 116z"/>
<path style="fill:#caa03f; stroke:none;" d="M219 118L220 119L219 118z"/>
<path style="fill:#92714c; stroke:none;" d="M220 119L221 120L220 119z"/>
<path style="fill:#caa03f; stroke:none;" d="M221 121L222 122L221 121z"/>
<path style="fill:#92714c; stroke:none;" d="M223 124L224 125L223 124z"/>
<path style="fill:#caa03f; stroke:none;" d="M224 126L225 127L224 126M225 128L226 129L225 128M226 130L227 131L226 130M227 132L228 133L227 132M228 134L229 135L228 134z"/>
<path style="fill:#92714c; stroke:none;" d="M229 136L230 137L229 136M230 138L231 139L230 138z"/>
<path style="fill:#caa03f; stroke:none;" d="M231 141L232 142L231 141z"/>
<path style="fill:#92714c; stroke:none;" d="M232 143L233 144L232 143M233 146L234 147L233 146M234 149L235 150L234 149M235 152L236 153L235 152M236 155L237 156L236 155z"/>
<path style="fill:#caa03f; stroke:none;" d="M236 156L237 157L236 156M237 160L238 161L237 160z"/>
<path style="fill:#92714c; stroke:none;" d="M238 164L239 165L238 164z"/>
<path style="fill:#caa03f; stroke:none;" d="M238 165L239 166L238 165z"/>
<path style="fill:#92714c; stroke:none;" d="M239 170L240 171L239 170z"/>
<path style="fill:#caa03f; stroke:none;" d="M239 171L240 172L239 171z"/>
<path style="fill:#92714c; stroke:none;" d="M240 177L240 181L241 181L240 177z"/>
<path style="fill:#caa03f; stroke:none;" d="M240.333 181.667L240.667 182.333L240.333 181.667M240 197L241 198L240 197z"/>
<path style="fill:#92714c; stroke:none;" d="M240 198L240 201L241 201L240 198z"/>
<path style="fill:#caa03f; stroke:none;" d="M239 205L240 206L239 205z"/>
<path style="fill:#92714c; stroke:none;" d="M239 206L240 207L239 206z"/>
<path style="fill:#caa03f; stroke:none;" d="M238 210L239 211L238 210z"/>
<path style="fill:#92714c; stroke:none;" d="M238 211L239 212L238 211z"/>
<path style="fill:#caa03f; stroke:none;" d="M237 214L238 215L237 214M236 217L237 218L236 217z"/>
<path style="fill:#92714c; stroke:none;" d="M236 218L237 219L236 218M235 221L236 222L235 221z"/>
<path style="fill:#caa03f; stroke:none;" d="M234 223L235 224L234 223z"/>
<path style="fill:#92714c; stroke:none;" d="M233 226L234 227L233 226z"/>
<path style="fill:#caa03f; stroke:none;" d="M232 228L233 229L232 228M231 230L232 231L231 230M230 232L231 233L230 232z"/>
<path style="fill:#92714c; stroke:none;" d="M278 235L278 333L279 333L279 265L278 235z"/>
<path style="fill:#caa03f; stroke:none;" d="M228 236L229 237L228 236M227 238L228 239L227 238z"/>
<path style="fill:#92714c; stroke:none;" d="M226 240L227 241L226 240M225 242L226 243L225 242z"/>
<path style="fill:#caa03f; stroke:none;" d="M224 243L225 244L224 243z"/>
<path style="fill:#92714c; stroke:none;" d="M223 245L224 246L223 245M221 248L222 249L221 248M219 251L220 252L219 251z"/>
<path style="fill:#caa03f; stroke:none;" d="M218 252L219 253L218 252z"/>
<path style="fill:#92714c; stroke:none;" d="M216 255L217 256L216 255z"/>
<path style="fill:#caa03f; stroke:none;" d="M215 256L216 257L215 256z"/>
<path style="fill:#92714c; stroke:none;" d="M212 260L213 261L212 260z"/>
<path style="fill:#caa03f; stroke:none;" d="M211 261L212 262L211 261M210 262L211 263L210 262z"/>
<path style="fill:#92714c; stroke:none;" d="M205 268L206 269L205 268M204 269L205 270L204 269M203 270L204 271L203 270M202 271L203 272L202 271M201 272L202 273L201 272M200 273L201 274L200 273M199 274L200 275L199 274M198 275L199 276L198 275z"/>
<path style="fill:#caa03f; stroke:none;" d="M191 281L192 282L191 281M190 282L191 283L190 282z"/>
<path style="fill:#92714c; stroke:none;" d="M189 283L190 284L189 283z"/>
<path style="fill:#caa03f; stroke:none;" d="M185 286L186 287L185 286z"/>
<path style="fill:#92714c; stroke:none;" d="M184 287L185 288L184 287M183 288L184 289L183 288M180 290L181 291L180 290M176 293L177 294L176 293z"/>
<path style="fill:#caa03f; stroke:none;" d="M173 295L174 296L173 295M170 297L171 298L170 297M167 299L168 300L167 299z"/>
<path style="fill:#92714c; stroke:none;" d="M164 301L165 302L164 301M161 303L162 304L161 303M159 304L160 305L159 304z"/>
<path style="fill:#caa03f; stroke:none;" d="M157 305L158 306L157 305M147 310L148 311L147 310M143 312L144 313L143 312z"/>
<path style="fill:#92714c; stroke:none;" d="M141 313L142 314L141 313z"/>
<path style="fill:#caa03f; stroke:none;" d="M138 314L139 315L138 314z"/>
<path style="fill:#92714c; stroke:none;" d="M139 314L140 315L139 314z"/>
<path style="fill:#caa03f; stroke:none;" d="M136 315L137 316L136 315M133 316L134 317L133 316z"/>
<path style="fill:#92714c; stroke:none;" d="M134 316L135 317L134 316M131 317L132 318L131 317z"/>
<path style="fill:#caa03f; stroke:none;" d="M127 318L128 319L127 318z"/>
<path style="fill:#92714c; stroke:none;" d="M128 318L129 319L128 318z"/>
<path style="fill:#caa03f; stroke:none;" d="M124 319L125 320L124 319M119 320L120 321L119 320z"/>
<path style="fill:#92714c; stroke:none;" d="M120 320L121 321L120 320z"/>
<path style="fill:#caa03f; stroke:none;" d="M113.667 321.333L114.333 321.667L113.667 321.333z"/>
<path style="fill:#92714c; stroke:none;" d="M115 321L116 322L115 321M35 322L35 435L35 464C35 467.122 33.9543 472.779 36.0278 475.397C39.1731 479.368 53.2824 477 58 477L58 476L36 476L36 368C36 355.009 40.0067 333.932 35 322z"/>
<path style="fill:#caa03f; stroke:none;" d="M454 342L455 343L454 342M279.333 343.667L279.667 344.333L279.333 343.667z"/>
<path style="fill:#92714c; stroke:none;" d="M454 343L454 346L455 346L454 343M279 345L280 346L279 345z"/>
<path style="fill:#caa03f; stroke:none;" d="M280 350L281 351L280 350z"/>
<path style="fill:#92714c; stroke:none;" d="M453 350L454 351L453 350z"/>
<path style="fill:#caa03f; stroke:none;" d="M281 354L282 355L281 354z"/>
<path style="fill:#92714c; stroke:none;" d="M452.333 354.667L452.667 355.333L452.333 354.667M281 355L282 356L281 355z"/>
<path style="fill:#caa03f; stroke:none;" d="M282 358L283 359L282 358z"/>
<path style="fill:#92714c; stroke:none;" d="M451 358L452 359L451 358z"/>
<path style="fill:#caa03f; stroke:none;" d="M283 361L284 362L283 361z"/>
<path style="fill:#92714c; stroke:none;" d="M450 361L451 362L450 361M284 364L285 365L284 364M449 364L450 365L449 364M155 366L155 367L158 367L155 366z"/>
<path style="fill:#caa03f; stroke:none;" d="M158.667 366.333L159.333 366.667L158.667 366.333M176.667 366.333L177.333 366.667L176.667 366.333z"/>
<path style="fill:#92714c; stroke:none;" d="M178 366L178 367L181 367L178 366z"/>
<path style="fill:#caa03f; stroke:none;" d="M448 366L449 367L448 366z"/>
<path style="fill:#92714c; stroke:none;" d="M149 367L150 368L149 367z"/>
<path style="fill:#caa03f; stroke:none;" d="M186 367L187 368L186 367z"/>
<path style="fill:#92714c; stroke:none;" d="M187 367L188 368L187 367M285 367L286 368L285 367M144 368L145 369L144 368z"/>
<path style="fill:#caa03f; stroke:none;" d="M145 368L146 369L145 368z"/>
<path style="fill:#92714c; stroke:none;" d="M191.667 368.333L192.333 368.667L191.667 368.333z"/>
<path style="fill:#caa03f; stroke:none;" d="M140 369L141 370L140 369z"/>
<path style="fill:#92714c; stroke:none;" d="M196 369L197 370L196 369M286 369L287 370L286 369M136 370L137 371L136 370z"/>
<path style="fill:#caa03f; stroke:none;" d="M137 370L138 371L137 370z"/>
<path style="fill:#92714c; stroke:none;" d="M199 370L200 371L199 370M133 371L134 372L133 371z"/>
<path style="fill:#caa03f; stroke:none;" d="M202 371L203 372L202 371M287 371L288 372L287 371z"/>
<path style="fill:#92714c; stroke:none;" d="M446 371L447 372L446 371M130 372L131 373L130 372z"/>
<path style="fill:#caa03f; stroke:none;" d="M205 372L206 373L205 372z"/>
<path style="fill:#92714c; stroke:none;" d="M208 373L209 374L208 373M288 373L289 374L288 373M445 373L446 374L445 373M125 374L126 375L125 374z"/>
<path style="fill:#caa03f; stroke:none;" d="M210 374L211 375L210 374M123 375L124 376L123 375z"/>
<path style="fill:#92714c; stroke:none;" d="M289 375L290 376L289 375M444 375L445 376L444 375z"/>
<path style="fill:#caa03f; stroke:none;" d="M121 376L122 377L121 376z"/>
<path style="fill:#92714c; stroke:none;" d="M215 376L216 377L215 376M217 377L218 378L217 377M290 377L291 378L290 377z"/>
<path style="fill:#caa03f; stroke:none;" d="M117 378L118 379L117 378z"/>
<path style="fill:#92714c; stroke:none;" d="M219 378L220 379L219 378z"/>
<path style="fill:#caa03f; stroke:none;" d="M442 378L443 379L442 378M115 379L116 380L115 379z"/>
<path style="fill:#92714c; stroke:none;" d="M221 379L222 380L221 379z"/>
<path style="fill:#caa03f; stroke:none;" d="M113 380L114 381L113 380z"/>
<path style="fill:#92714c; stroke:none;" d="M292 380L293 381L292 380M441 380L442 381L441 380M111 381L112 382L111 381M224 381L225 382L224 381z"/>
<path style="fill:#caa03f; stroke:none;" d="M440 381L441 382L440 381z"/>
<path style="fill:#92714c; stroke:none;" d="M226 382L227 383L226 382M108 383L109 384L108 383z"/>
<path style="fill:#caa03f; stroke:none;" d="M227 383L228 384L227 383z"/>
<path style="fill:#92714c; stroke:none;" d="M294 383L295 384L294 383M439 383L440 384L439 383M229 384L230 385L229 384M105 385L106 386L105 385z"/>
<path style="fill:#caa03f; stroke:none;" d="M230 385L231 386L230 385z"/>
<path style="fill:#92714c; stroke:none;" d="M296 386L297 387L296 386M102 387L103 388L102 387z"/>
<path style="fill:#caa03f; stroke:none;" d="M233 387L234 388L233 387z"/>
<path style="fill:#92714c; stroke:none;" d="M297 387L298 388L297 387M436 387L437 388L436 387z"/>
<path style="fill:#caa03f; stroke:none;" d="M101 388L102 389L101 388M298 388L299 389L298 388M435 388L436 389L435 388z"/>
<path style="fill:#92714c; stroke:none;" d="M236 389L237 390L236 389M237 390L238 391L237 390M97 391L98 392L97 391z"/>
<path style="fill:#caa03f; stroke:none;" d="M238 391L239 392L238 391M96 392L97 393L96 392z"/>
<path style="fill:#92714c; stroke:none;" d="M301 392L302 393L301 392z"/>
<path style="fill:#caa03f; stroke:none;" d="M95 393L96 394L95 393z"/>
<path style="fill:#92714c; stroke:none;" d="M302 393L303 394L302 393M303 394L304 395L303 394M430 394L431 395L430 394M304 395L305 396L304 395M429 395L430 396L429 395M244 396L245 397L244 396M305 396L306 397L305 396M428 396L429 397L428 396M245 397L246 398L245 397M306 397L307 398L306 397M246 398L247 399L246 398M307 398L308 399L307 398M247 399L248 400L247 399z"/>
<path style="fill:#caa03f; stroke:none;" d="M311 401L312 402L311 401M422 401L423 402L422 401z"/>
<path style="fill:#92714c; stroke:none;" d="M312 402L313 403L312 402M421 402L422 403L421 402z"/>
<path style="fill:#caa03f; stroke:none;" d="M85 403L86 404L85 403z"/>
<path style="fill:#92714c; stroke:none;" d="M313 403L314 404L313 403z"/>
<path style="fill:#caa03f; stroke:none;" d="M84 404L85 405L84 404M418 404L419 405L418 404z"/>
<path style="fill:#92714c; stroke:none;" d="M83 405L84 406L83 405z"/>
<path style="fill:#caa03f; stroke:none;" d="M252 405L253 406L252 405z"/>
<path style="fill:#92714c; stroke:none;" d="M316 405L317 406L316 405M417 405L418 406L417 405M82 406L83 407L82 406z"/>
<path style="fill:#caa03f; stroke:none;" d="M253 406L254 407L253 406z"/>
<path style="fill:#92714c; stroke:none;" d="M254 407L255 408L254 407M319 407L320 408L319 407M414 407L415 408L414 407z"/>
<path style="fill:#caa03f; stroke:none;" d="M80 409L81 410L80 409z"/>
<path style="fill:#92714c; stroke:none;" d="M322 409L323 410L322 409M411 409L412 410L411 409M79 410L80 411L79 410z"/>
<path style="fill:#caa03f; stroke:none;" d="M256 410L257 411L256 410z"/>
<path style="fill:#92714c; stroke:none;" d="M324 410L325 411L324 410M409 410L410 411L409 410M257 411L258 412L257 411M326 411L327 412L326 411M407 411L408 412L407 411z"/>
<path style="fill:#caa03f; stroke:none;" d="M328 412L329 413L328 412M405 412L406 413L405 412M77 413L78 414L77 413z"/>
<path style="fill:#92714c; stroke:none;" d="M330 413L331 414L330 413M403 413L404 414L403 413M259 414L260 415L259 414M332 414L333 415L332 414M401 414L402 415L401 414z"/>
<path style="fill:#caa03f; stroke:none;" d="M335 415L336 416L335 415z"/>
<path style="fill:#92714c; stroke:none;" d="M398 415L399 416L398 415z"/>
<path style="fill:#caa03f; stroke:none;" d="M75 416L76 417L75 416z"/>
<path style="fill:#92714c; stroke:none;" d="M337 416L338 417L337 416z"/>
<path style="fill:#caa03f; stroke:none;" d="M338 416L339 417L338 416M395 416L396 417L395 416z"/>
<path style="fill:#92714c; stroke:none;" d="M261 417L262 418L261 417z"/>
<path style="fill:#caa03f; stroke:none;" d="M341 417L342 418L341 417M392 417L393 418L392 417z"/>
<path style="fill:#92714c; stroke:none;" d="M344 418L345 419L344 418z"/>
<path style="fill:#caa03f; stroke:none;" d="M345 418L346 419L345 418M388 418L389 419L388 418z"/>
<path style="fill:#92714c; stroke:none;" d="M389 418L390 419L389 418M73 419L74 420L73 419z"/>
<path style="fill:#caa03f; stroke:none;" d="M262 419L263 420L262 419z"/>
<path style="fill:#92714c; stroke:none;" d="M348 419L349 420L348 419z"/>
<path style="fill:#caa03f; stroke:none;" d="M349 419L350 420L349 419M384 419L385 420L384 419z"/>
<path style="fill:#92714c; stroke:none;" d="M385 419L386 420L385 419M353.667 420.333L354.333 420.667L353.667 420.333z"/>
<path style="fill:#caa03f; stroke:none;" d="M355.667 420.333L356.333 420.667L355.667 420.333M377.667 420.333L378.333 420.667L377.667 420.333z"/>
<path style="fill:#92714c; stroke:none;" d="M379.667 420.333L380.333 420.667L379.667 420.333z"/>
<path style="fill:#caa03f; stroke:none;" d="M72 421L73 422L72 421z"/>
<path style="fill:#92714c; stroke:none;" d="M365 421L366 422L365 421M264 422L265 423L264 422z"/>
<path style="fill:#caa03f; stroke:none;" d="M265 424L266 425L265 424z"/>
<path style="fill:#92714c; stroke:none;" d="M266 426L267 427L266 426M68 428L69 429L68 428z"/>
<path style="fill:#caa03f; stroke:none;" d="M267 428L268 429L267 428z"/>
<path style="fill:#92714c; stroke:none;" d="M268 430L269 431L268 430z"/>
<path style="fill:#caa03f; stroke:none;" d="M67 431L68 432L67 431z"/>
<path style="fill:#92714c; stroke:none;" d="M269 432L270 433L269 432z"/>
<path style="fill:#caa03f; stroke:none;" d="M66 433L67 434L66 433z"/>
<path style="fill:#92714c; stroke:none;" d="M65 435L66 436L65 435z"/>
<path style="fill:#caa03f; stroke:none;" d="M270 435L271 436L270 435M65 436L66 437L65 436z"/>
<path style="fill:#92714c; stroke:none;" d="M271 437L272 438L271 437M64 438L65 439L64 438M272 440L273 441L272 440M63 441L64 442L63 441M273 443L274 444L273 443M62 444L63 445L62 444z"/>
<path style="fill:#caa03f; stroke:none;" d="M273 444L274 445L273 444z"/>
<path style="fill:#92714c; stroke:none;" d="M61 447L62 448L61 447z"/>
<path style="fill:#caa03f; stroke:none;" d="M274 447L275 448L274 447M61 448L62 449L61 448z"/>
<path style="fill:#92714c; stroke:none;" d="M275 450L276 451L275 450z"/>
<path style="fill:#caa03f; stroke:none;" d="M275 451L276 452L275 451M60 452L61 453L60 452z"/>
<path style="fill:#92714c; stroke:none;" d="M276 455L277 456L276 455M59.3333 456.667L59.6667 457.333L59.3333 456.667z"/>
<path style="fill:#caa03f; stroke:none;" d="M59 458L60 459L59 458z"/>
<path style="fill:#92714c; stroke:none;" d="M277 460L277 463L278 463L277 460M58 463L59 464L58 463z"/>
<path style="fill:#caa03f; stroke:none;" d="M277 463L278 464L277 463M58 464L59 465L58 464z"/>
<path style="fill:#92714c; stroke:none;" d="M278 473C279.739 478.241 285.3 477 290 477L325 477L477 477L477 476L330 476L294 476C288.365 476 282.349 477.152 278 473z"/>
<path style="fill:#caa03f; stroke:none;" d="M35 476L36 477L35 476M278 476L279 477L278 476z"/>
</svg>
