<?xml version="1.0" standalone="no"?>
<!DOCTYPE svg PUBLIC "-//W3C//DTD SVG 20010904//EN"
 "http://www.w3.org/TR/2001/REC-SVG-20010904/DTD/svg10.dtd">
<svg version="1.0" xmlns="http://www.w3.org/2000/svg"
 width="239.000000pt" height="239.000000pt" viewBox="0 0 239.000000 239.000000"
 preserveAspectRatio="xMidYMid meet">

<g transform="translate(0.000000,239.000000) scale(0.100000,-0.100000)"
fill="#000000" stroke="none">
<path d="M1030 2314 c-190 -35 -333 -90 -475 -185 -245 -164 -418 -419 -481
-713 -22 -100 -21 -336 1 -446 44 -214 136 -393 286 -555 348 -373 881 -466
1341 -234 362 183 618 597 618 999 0 164 -48 368 -121 512 -117 232 -340 444
-564 537 -160 67 -236 83 -415 86 -91 2 -176 2 -190 -1z m381 -29 c215 -45
434 -167 577 -320 191 -204 285 -413 311 -690 40 -427 -195 -859 -584 -1070
-551 -299 -1246 -80 -1529 482 -45 89 -83 203 -102 301 -19 100 -18 322 2 420
98 473 492 837 969 892 89 11 270 3 356 -15z"/>
<path d="M1152 2143 c2 -50 7 -78 16 -81 9 -3 12 17 12 77 0 66 -3 81 -15 81
-13 0 -15 -13 -13 -77z"/>
<path d="M1285 2212 c-10 -11 -4 -20 16 -25 19 -5 20 -10 13 -49 -11 -63 -10
-81 3 -85 11 -4 14 8 28 90 4 28 11 37 25 37 11 0 20 4 20 9 0 9 -97 31 -105
23z"/>
<path d="M970 2193 c-31 -16 -35 -23 -38 -62 -5 -72 46 -110 111 -80 22 10 24
15 17 46 -11 45 -13 47 -47 35 -27 -10 -27 -11 -5 -17 31 -10 30 -45 -2 -45
-32 0 -48 22 -44 62 2 27 9 35 34 43 32 10 44 28 22 33 -7 1 -29 -6 -48 -15z"/>
<path d="M1477 2100 c-27 -33 -45 -65 -42 -71 5 -7 13 -5 25 6 25 23 70 10 70
-20 0 -13 6 -25 14 -28 12 -5 15 10 18 71 6 121 -13 130 -85 42z m63 -10 c0
-31 -6 -36 -28 -21 -12 7 -12 12 -1 30 19 29 29 26 29 -9z"/>
<path d="M792 2141 c-10 -6 -9 -15 3 -44 8 -20 22 -53 29 -72 10 -24 20 -33
30 -29 12 5 9 18 -15 77 -34 83 -31 78 -47 68z"/>
<path d="M1660 2013 c-32 -51 -38 -68 -28 -75 62 -42 107 -45 56 -4 -25 19
-26 24 -15 41 48 72 57 93 43 98 -10 4 -28 -16 -56 -60z"/>
<path d="M608 2042 c-16 -9 -28 -20 -28 -24 0 -13 75 -127 84 -128 4 0 23 15
42 34 41 41 43 73 9 110 -28 30 -67 34 -107 8z m85 -30 c20 -17 22 -53 5 -70
-19 -19 -26 -15 -55 29 -26 40 -26 42 -9 55 20 14 29 12 59 -14z"/>
<path d="M1050 1944 c-53 -10 -156 -47 -214 -76 -144 -72 -263 -193 -340 -345
-40 -81 -30 -77 13 4 83 157 193 264 346 338 112 54 205 75 333 75 256 0 499
-131 627 -338 43 -70 59 -84 23 -21 -62 110 -188 228 -308 289 -115 58 -175
72 -320 75 -74 2 -146 1 -160 -1z"/>
<path d="M1893 1827 c-28 -23 -52 -47 -52 -53 -1 -15 54 -66 62 -57 4 3 0 14
-9 24 -9 10 -14 25 -11 34 8 19 36 20 43 0 4 -8 12 -15 20 -15 18 0 18 9 -2
31 -17 19 -12 39 11 39 7 0 15 -7 19 -15 5 -15 36 -22 36 -7 -1 11 -48 62 -57
61 -4 0 -31 -19 -60 -42z"/>
<path d="M371 1821 c-17 -21 -31 -44 -31 -50 0 -17 18 -13 28 5 8 15 15 12 57
-20 50 -38 60 -42 69 -27 3 5 -16 26 -44 47 -40 30 -47 41 -39 55 23 45 -2 38
-40 -10z"/>
<path d="M2000 1679 c-68 -39 -66 -37 -53 -50 8 -8 17 -7 33 1 31 16 35 6 15
-36 -26 -55 -3 -69 25 -15 21 42 21 42 66 35 37 -5 43 -4 38 9 -3 8 -26 19
-52 24 l-47 10 28 13 c27 13 37 40 15 40 -7 0 -38 -14 -68 -31z"/>
<path d="M270 1668 c1 -7 24 -24 53 -38 36 -17 52 -31 52 -44 0 -34 -27 -40
-75 -17 -48 23 -70 26 -70 11 0 -13 94 -60 119 -60 44 0 68 82 34 112 -18 16
-88 48 -104 48 -5 0 -9 -6 -9 -12z"/>
<path d="M860 1545 l0 -65 150 0 150 0 0 65 0 65 -150 0 -150 0 0 -65z"/>
<path d="M1338 1445 c-156 -148 -163 -153 -168 -127 l-5 27 -155 0 -155 0 -3
-172 c-1 -103 1 -173 7 -173 5 0 76 63 158 141 l148 140 3 -150 3 -151 169 0
170 0 0 310 c0 171 -2 310 -5 310 -2 0 -78 -70 -167 -155z"/>
<path d="M2056 1479 c-32 -25 -34 -66 -5 -103 42 -54 139 -19 139 50 0 68 -76
98 -134 53z m104 -28 c14 -27 4 -47 -30 -61 -48 -20 -89 6 -73 46 13 34 87 45
103 15z"/>
<path d="M181 1425 c-15 -51 -6 -99 10 -56 10 25 14 25 107 5 25 -5 32 -3 32
9 0 12 -17 20 -61 29 -55 11 -60 14 -56 35 8 42 -18 24 -32 -22z"/>
<path d="M451 1404 c0 -11 3 -14 6 -6 3 7 2 16 -1 19 -3 4 -6 -2 -5 -13z"/>
<path d="M435 1350 c-4 -17 -5 -34 -2 -36 2 -3 7 10 11 27 8 42 0 50 -9 9z"/>
<path d="M1921 1354 c0 -11 3 -14 6 -6 3 7 2 16 -1 19 -3 4 -6 -2 -5 -13z"/>
<path d="M1932 1290 c0 -14 2 -19 5 -12 2 6 2 18 0 25 -3 6 -5 1 -5 -13z"/>
<path d="M150 1246 c0 -14 60 -26 126 -26 48 0 45 26 -3 34 -67 11 -123 7
-123 -8z"/>
<path d="M2063 1248 c2 -9 22 -12 55 -11 29 1 52 -1 52 -5 0 -4 -24 -21 -53
-37 -35 -21 -52 -37 -52 -50 0 -18 8 -20 78 -23 63 -2 77 0 77 12 0 11 -15 16
-57 18 l-58 3 58 33 c38 23 57 40 57 53 0 17 -8 19 -81 19 -60 0 -80 -3 -76
-12z"/>
<path d="M1941 1224 c0 -11 3 -14 6 -6 3 7 2 16 -1 19 -3 4 -6 -2 -5 -13z"/>
<path d="M1935 1110 c-4 -23 -5 -43 -2 -46 2 -3 7 14 11 37 4 23 5 44 2 46 -2
2 -7 -14 -11 -37z"/>
<path d="M154 1099 c3 -17 6 -42 6 -55 0 -15 6 -24 15 -24 9 0 15 7 13 17 -3
19 27 30 85 32 27 1 37 5 37 17 0 15 -9 16 -65 11 -60 -6 -65 -5 -65 13 0 12
-7 20 -16 20 -13 0 -15 -7 -10 -31z"/>
<path d="M431 1059 c0 -13 4 -33 9 -44 7 -14 8 -8 3 20 -7 46 -13 59 -12 24z"/>
<path d="M1916 1009 c-8 -42 0 -50 9 -9 4 17 5 34 2 36 -2 3 -7 -10 -11 -27z"/>
<path d="M2051 1004 c-42 -53 -15 -111 55 -121 53 -7 84 20 84 72 0 71 -95
105 -139 49z m97 -20 c51 -35 10 -85 -53 -64 -26 9 -35 17 -35 34 0 45 45 60
88 30z"/>
<path d="M451 974 c0 -11 3 -14 6 -6 3 7 2 16 -1 19 -3 4 -6 -2 -5 -13z"/>
<path d="M272 948 c-7 -7 -12 -22 -12 -34 0 -12 -7 -27 -15 -34 -15 -13 -14
-14 -30 35 -7 22 -25 18 -25 -6 0 -77 80 -89 94 -14 9 45 39 46 44 2 2 -16 8
-26 15 -24 14 5 10 56 -5 74 -13 16 -50 17 -66 1z"/>
<path d="M1886 915 c-9 -26 -7 -32 5 -12 6 10 9 21 6 23 -2 3 -7 -2 -11 -11z"/>
<path d="M480 897 c0 -29 84 -160 145 -226 68 -74 203 -168 265 -185 14 -4 -8
11 -47 32 -149 81 -237 166 -318 308 -25 43 -45 75 -45 71z"/>
<path d="M857 883 c-4 -3 -7 -19 -7 -34 0 -25 3 -27 50 -31 49 -3 50 -2 50 25
0 21 5 27 23 27 20 0 22 -4 19 -40 -4 -37 -2 -40 22 -40 24 0 26 4 26 40 l0
40 80 0 c66 0 78 -2 74 -15 -4 -8 -2 -15 4 -15 5 0 12 7 16 15 4 11 20 15 56
15 l50 0 0 -42 1 -43 19 24 c11 13 20 32 20 43 0 16 5 19 25 16 17 -4 25 -1
25 8 0 12 -49 14 -273 14 -151 0 -277 -3 -280 -7z"/>
<path d="M1830 802 c-79 -133 -216 -250 -358 -308 -150 -60 -326 -74 -472 -36
-86 23 -108 21 -30 -2 336 -100 703 51 882 362 16 29 29 55 27 57 -2 1 -24
-31 -49 -73z"/>
<path d="M1077 854 c-11 -12 3 -24 29 -24 16 0 24 5 22 13 -5 13 -40 22 -51
11z"/>
<path d="M1243 853 c-27 -10 -7 -63 24 -63 8 0 13 13 13 35 0 34 -8 40 -37 28z"/>
<path d="M1145 831 c-5 -5 -23 -11 -40 -13 -22 -2 -29 -8 -27 -20 2 -16 -6
-18 -63 -18 -49 0 -66 -3 -63 -12 4 -10 71 -14 281 -16 l277 -2 0 45 0 45 -45
0 c-25 0 -45 -2 -45 -5 0 -3 7 -17 16 -30 16 -24 16 -25 -10 -25 -17 0 -26 5
-26 16 0 10 -7 14 -17 12 -10 -2 -17 -10 -15 -16 4 -19 -144 -16 -152 3 -3 8
-10 15 -17 15 -6 0 -9 -7 -5 -15 3 -10 -1 -15 -14 -15 -14 0 -20 8 -22 31 -2
20 -6 27 -13 20z"/>
<path d="M1990 816 c0 -7 13 -19 30 -26 16 -7 34 -18 40 -25 9 -11 4 -11 -27
-4 -90 21 -105 4 -48 -51 48 -46 44 -57 -9 -26 -52 30 -59 32 -54 11 2 -9 31
-32 65 -51 60 -34 62 -34 73 -14 9 17 4 27 -32 66 l-43 47 40 -6 c22 -4 50
-10 62 -13 15 -4 24 0 32 14 10 18 4 24 -53 56 -72 40 -76 42 -76 22z"/>
<path d="M318 767 c-32 -17 -58 -37 -58 -44 0 -18 9 -16 58 12 23 13 42 20 42
15 0 -5 -13 -31 -28 -57 -22 -38 -26 -52 -18 -65 9 -16 17 -14 76 19 79 44 76
41 63 54 -8 8 -23 3 -53 -16 -23 -14 -44 -24 -46 -22 -3 3 9 28 25 56 29 49
32 81 7 81 -6 0 -37 -15 -68 -33z"/>
<path d="M459 574 c-29 -26 -54 -51 -54 -57 0 -24 23 -13 75 33 38 34 52 52
44 60 -7 7 -27 -4 -65 -36z"/>
<path d="M1846 613 c-11 -12 -6 -19 50 -67 41 -36 58 -46 67 -37 8 8 -1 21
-33 48 -61 53 -76 63 -84 56z"/>
<path d="M540 475 c-26 -31 18 -71 47 -43 12 12 13 20 4 37 -14 25 -34 27 -51
6z"/>
<path d="M1750 475 c-15 -18 -7 -43 16 -52 24 -9 46 24 33 48 -12 23 -32 24
-49 4z"/>
<path d="M717 372 c-15 -32 -27 -63 -27 -70 0 -17 59 -45 78 -37 14 5 11 9
-13 22 -16 9 -31 17 -33 18 -2 2 8 26 22 54 29 57 32 71 13 71 -8 0 -26 -26
-40 -58z"/>
<path d="M1563 412 c-15 -10 -5 -174 11 -169 6 2 12 14 14 26 5 30 47 49 73
33 11 -7 25 -10 30 -6 7 4 -13 31 -47 65 -62 62 -62 63 -81 51z m43 -46 c20
-20 17 -36 -6 -36 -15 0 -20 7 -20 25 0 29 6 31 26 11z"/>
<path d="M920 290 c-15 -80 -15 -83 -1 -88 6 -2 13 8 17 22 5 20 12 26 34 26
35 0 60 23 60 56 0 19 -8 28 -35 40 -56 23 -61 20 -75 -56z m69 31 c19 -12 6
-41 -19 -41 -21 0 -24 8 -14 34 7 18 13 19 33 7z"/>
<path d="M1381 328 c2 -45 24 -121 37 -126 16 -5 15 29 -1 92 -14 52 -38 75
-36 34z"/>
<path d="M1152 253 c2 -50 7 -78 16 -81 8 -2 12 7 12 27 0 44 15 46 40 6 12
-19 28 -35 36 -35 20 0 18 10 -11 53 l-26 37 27 35 c21 27 23 35 10 35 -8 0
-25 -13 -38 -30 -12 -16 -25 -30 -30 -30 -4 0 -8 14 -8 30 0 20 -5 30 -15 30
-13 0 -15 -13 -13 -77z"/>
</g>
</svg>
